<?xml version="1.0" standalone="no"?>
 <!DOCTYPE svg PUBLIC "-//W3C//DTD SVG 1.1//EN" 
 "http://www.w3.org/Graphics/SVG/1.1/DTD/svg11.dtd"> 
<svg
  xmlns:svg="http://www.w3.org/2000/svg"
  xmlns="http://www.w3.org/2000/svg"
  xmlns:xlink="http://www.w3.org/1999/xlink"
  version="1.1"
  width="7.736840cm" height="5.582920cm" viewBox="0 0 30460 21980">
<title>SVG Picture created as new-F_SilkS.svg date 2021/06/07 21:12:37 </title>
  <desc>Picture generated by PCBNEW </desc>
<g style="fill:#000000; fill-opacity:1;stroke:#000000; stroke-opacity:1;
stroke-linecap:round; stroke-linejoin:round;"
 transform="translate(0 0) scale(1 1)">
</g>
<g style="fill:#000000; fill-opacity:0.0; 
stroke:#000000; stroke-width:-0.000393701; stroke-opacity:1; 
stroke-linecap:round; stroke-linejoin:round;">
</g>
<g style="fill:#008484; fill-opacity:0.0; 
stroke:#008484; stroke-width:-0.000393701; stroke-opacity:1; 
stroke-linecap:round; stroke-linejoin:round;">
</g>
<g style="fill:#008484; fill-opacity:0.0; 
stroke:#008484; stroke-width:100; stroke-opacity:1; 
stroke-linecap:round; stroke-linejoin:round;">
<text x="17029.5" y="10364.5"
textLength="10705.3" font-size="800" lengthAdjust="spacingAndGlyphs"
text-anchor="middle" opacity="0">| Ramanan | Anjana |</text>
<path d="M12000 10495
L12000 9838
" />
<path d="M13229 10342
L13029 10123
" />
<path d="M12886 10342
L12886 9882
L13115 9882
L13172 9904
L13200 9926
L13229 9970
L13229 10035
L13200 10079
L13172 10101
L13115 10123
L12886 10123
" />
<path d="M13743 10342
L13743 10101
L13715 10057
L13658 10035
L13543 10035
L13486 10057
" />
<path d="M13743 10320
L13686 10342
L13543 10342
L13486 10320
L13458 10276
L13458 10233
L13486 10189
L13543 10167
L13686 10167
L13743 10145
" />
<path d="M14029 10342
L14029 10035
" />
<path d="M14029 10079
L14058 10057
L14115 10035
L14200 10035
L14258 10057
L14286 10101
L14286 10342
" />
<path d="M14286 10101
L14315 10057
L14372 10035
L14458 10035
L14515 10057
L14543 10101
L14543 10342
" />
<path d="M15086 10342
L15086 10101
L15058 10057
L15000 10035
L14886 10035
L14829 10057
" />
<path d="M15086 10320
L15029 10342
L14886 10342
L14829 10320
L14800 10276
L14800 10233
L14829 10189
L14886 10167
L15029 10167
L15086 10145
" />
<path d="M15372 10035
L15372 10342
" />
<path d="M15372 10079
L15400 10057
L15458 10035
L15543 10035
L15600 10057
L15629 10101
L15629 10342
" />
<path d="M16172 10342
L16172 10101
L16143 10057
L16086 10035
L15972 10035
L15915 10057
" />
<path d="M16172 10320
L16115 10342
L15972 10342
L15915 10320
L15886 10276
L15886 10233
L15915 10189
L15972 10167
L16115 10167
L16172 10145
" />
<path d="M16458 10035
L16458 10342
" />
<path d="M16458 10079
L16486 10057
L16543 10035
L16629 10035
L16686 10057
L16715 10101
L16715 10342
" />
<path d="M17600 10495
L17600 9838
" />
<path d="M18458 10211
L18743 10211
" />
<path d="M18400 10342
L18600 9882
L18800 10342
" />
<path d="M19000 10035
L19000 10342
" />
<path d="M19000 10079
L19029 10057
L19086 10035
L19172 10035
L19229 10057
L19258 10101
L19258 10342
" />
<path d="M19543 10035
L19543 10430
L19515 10474
L19458 10495
L19429 10495
" />
<path d="M19543 9882
L19515 9904
L19543 9926
L19572 9904
L19543 9882
L19543 9926
" />
<path d="M20086 10342
L20086 10101
L20058 10057
L20000 10035
L19886 10035
L19829 10057
" />
<path d="M20086 10320
L20029 10342
L19886 10342
L19829 10320
L19800 10276
L19800 10233
L19829 10189
L19886 10167
L20029 10167
L20086 10145
" />
<path d="M20372 10035
L20372 10342
" />
<path d="M20372 10079
L20400 10057
L20458 10035
L20543 10035
L20600 10057
L20629 10101
L20629 10342
" />
<path d="M21172 10342
L21172 10101
L21143 10057
L21086 10035
L20972 10035
L20915 10057
" />
<path d="M21172 10320
L21115 10342
L20972 10342
L20915 10320
L20886 10276
L20886 10233
L20915 10189
L20972 10167
L21115 10167
L21172 10145
" />
<path d="M22058 10495
L22058 9838
" />
<text x="17029.5" y="11154.5"
textLength="12901.4" font-size="800" lengthAdjust="spacingAndGlyphs"
text-anchor="middle" opacity="0">| Ahalya      | Harija    |</text>
<path d="M10929 11285
L10929 10628
" />
<path d="M11786 11001
L12072 11001
" />
<path d="M11729 11132
L11929 10672
L12129 11132
" />
<path d="M12329 11132
L12329 10672
" />
<path d="M12586 11132
L12586 10891
L12558 10847
L12500 10825
L12415 10825
L12358 10847
L12329 10869
" />
<path d="M13129 11132
L13129 10891
L13100 10847
L13043 10825
L12929 10825
L12872 10847
" />
<path d="M13129 11110
L13072 11132
L12929 11132
L12872 11110
L12843 11066
L12843 11023
L12872 10979
L12929 10957
L13072 10957
L13129 10935
" />
<path d="M13500 11132
L13443 11110
L13415 11066
L13415 10672
" />
<path d="M13672 10825
L13815 11132
" />
<path d="M13958 10825
L13815 11132
L13758 11242
L13729 11264
L13672 11285
" />
<path d="M14443 11132
L14443 10891
L14415 10847
L14358 10825
L14243 10825
L14186 10847
" />
<path d="M14443 11110
L14386 11132
L14243 11132
L14186 11110
L14158 11066
L14158 11023
L14186 10979
L14243 10957
L14386 10957
L14443 10935
" />
<path d="M17615 11285
L17615 10628
" />
<path d="M18500 11132
L18500 10672
" />
<path d="M18500 10891
L18843 10891
" />
<path d="M18843 11132
L18843 10672
" />
<path d="M19386 11132
L19386 10891
L19358 10847
L19300 10825
L19186 10825
L19129 10847
" />
<path d="M19386 11110
L19329 11132
L19186 11132
L19129 11110
L19100 11066
L19100 11023
L19129 10979
L19186 10957
L19329 10957
L19386 10935
" />
<path d="M19672 11132
L19672 10825
" />
<path d="M19672 10913
L19700 10869
L19729 10847
L19786 10825
L19843 10825
" />
<path d="M20043 11132
L20043 10825
" />
<path d="M20043 10672
L20015 10694
L20043 10716
L20072 10694
L20043 10672
L20043 10716
" />
<path d="M20329 10825
L20329 11220
L20300 11264
L20243 11285
L20215 11285
" />
<path d="M20329 10672
L20300 10694
L20329 10716
L20358 10694
L20329 10672
L20329 10716
" />
<path d="M20872 11132
L20872 10891
L20843 10847
L20786 10825
L20672 10825
L20615 10847
" />
<path d="M20872 11110
L20815 11132
L20672 11132
L20615 11110
L20586 11066
L20586 11023
L20615 10979
L20672 10957
L20815 10957
L20872 10935
" />
<path d="M23129 11285
L23129 10628
" />
</g>
<g style="fill:#008484; fill-opacity:0.0; 
stroke:#008484; stroke-width:98.4252; stroke-opacity:1; 
stroke-linecap:round; stroke-linejoin:round;">
<text x="17029.5" y="8726.38"
textLength="7696.67" font-size="933.333" lengthAdjust="spacingAndGlyphs"
text-anchor="middle" opacity="0">Arduino shield</text>
<path d="M13379 8595
L13712 8595
" />
<path d="M13312 8707
L13546 8313
L13779 8707
" />
<path d="M14012 8707
L14012 8445
" />
<path d="M14012 8520
L14046 8482
L14079 8463
L14146 8445
L14212 8445
" />
<path d="M14746 8707
L14746 8313
" />
<path d="M14746 8688
L14679 8707
L14546 8707
L14479 8688
L14446 8670
L14412 8632
L14412 8520
L14446 8482
L14479 8463
L14546 8445
L14679 8445
L14746 8463
" />
<path d="M15379 8445
L15379 8707
" />
<path d="M15079 8445
L15079 8651
L15112 8688
L15179 8707
L15279 8707
L15346 8688
L15379 8670
" />
<path d="M15712 8707
L15712 8445
" />
<path d="M15712 8313
L15679 8332
L15712 8351
L15746 8332
L15712 8313
L15712 8351
" />
<path d="M16046 8445
L16046 8707
" />
<path d="M16046 8482
L16079 8463
L16146 8445
L16246 8445
L16312 8463
L16346 8501
L16346 8707
" />
<path d="M16779 8707
L16712 8688
L16679 8670
L16646 8632
L16646 8520
L16679 8482
L16712 8463
L16779 8445
L16879 8445
L16946 8463
L16979 8482
L17012 8520
L17012 8632
L16979 8670
L16946 8688
L16879 8707
L16779 8707
" />
<path d="M17812 8688
L17879 8707
L18012 8707
L18079 8688
L18112 8651
L18112 8632
L18079 8595
L18012 8576
L17912 8576
L17846 8557
L17812 8520
L17812 8501
L17846 8463
L17912 8445
L18012 8445
L18079 8463
" />
<path d="M18412 8707
L18412 8313
" />
<path d="M18712 8707
L18712 8501
L18679 8463
L18612 8445
L18512 8445
L18446 8463
L18412 8482
" />
<path d="M19046 8707
L19046 8445
" />
<path d="M19046 8313
L19012 8332
L19046 8351
L19079 8332
L19046 8313
L19046 8351
" />
<path d="M19646 8688
L19579 8707
L19446 8707
L19379 8688
L19346 8651
L19346 8501
L19379 8463
L19446 8445
L19579 8445
L19646 8463
L19679 8501
L19679 8538
L19346 8576
" />
<path d="M20079 8707
L20012 8688
L19979 8651
L19979 8313
" />
<path d="M20646 8707
L20646 8313
" />
<path d="M20646 8688
L20579 8707
L20446 8707
L20379 8688
L20346 8670
L20312 8632
L20312 8520
L20346 8482
L20379 8463
L20446 8445
L20579 8445
L20646 8463
" />
</g>
<g style="fill:#008484; fill-opacity:0.0; 
stroke:#008484; stroke-width:59.0551; stroke-opacity:1; 
stroke-linecap:round; stroke-linejoin:round;">
<g transform="rotate(-90 13529.5 19529.5)">
<text x="13529.5" y="19726.4"
textLength="502.906" font-size="524.934" lengthAdjust="spacingAndGlyphs"
text-anchor="middle" opacity="0">1</text>
</g>
<path d="M13707 19417
L13707 19642
" />
<path d="M13707 19529
L13313 19529
L13370 19567
L13407 19604
L13426 19642
" />
<path d="M14029 21029
L21029 21029
" />
<path d="M21029 21029
L21029 20029
" />
<path d="M21029 20029
L14029 20029
" />
<path d="M12919 21139
L13529 21139
" />
<path d="M14029 21029
L14029 20029
" />
<path d="M13529 19919
L12919 19919
" />
<path d="M12919 19919
L12919 21139
" />
<path d="M23029 21029
L28029 21029
" />
<path d="M28029 21029
L28029 20029
" />
<path d="M28029 20029
L23029 20029
" />
<path d="M21919 21139
L22529 21139
" />
<path d="M23029 21029
L23029 20029
" />
<path d="M22529 19919
L21919 19919
" />
<path d="M21919 19919
L21919 21139
" />
<path d="M10429 2029
L19429 2029
" />
<path d="M19429 2029
L19429 1029
" />
<path d="M19429 1029
L10429 1029
" />
<path d="M9319 2139
L9929 2139
" />
<path d="M10429 2029
L10429 1029
" />
<path d="M9929 919
L9319 919
" />
<path d="M9319 919
L9319 2139
" />
<path d="M21029 2029
L28029 2029
" />
<path d="M28029 2029
L28029 1029
" />
<path d="M28029 1029
L21029 1029
" />
<path d="M19919 2139
L20529 2139
" />
<path d="M21029 2029
L21029 1029
" />
<path d="M20529 919
L19919 919
" />
<path d="M19919 919
L19919 2139
" />
<circle cx="8029.53" cy="20529.5" r="900" /> 
<circle cx="28529.5" cy="18529.5" r="900" /> 
<circle cx="8529.53" cy="1529.53" r="900" /> 
<circle cx="28529.5" cy="7529.53" r="900" /> 
</g>
<g style="fill:#008484; fill-opacity:0.0; 
stroke:#008484; stroke-width:47.2441; stroke-opacity:1; 
stroke-linecap:round; stroke-linejoin:round;">
<path d="M20844 18261
L23206 18261
" />
<path d="M20844 14797
L23206 14797
" />
<path d="M20831.6 14806.1 A2096.62 2096.62 0.0 0 0 20844.5 18261.8" />
<path d="M23219.5 18253 A2096.62 2096.62 0.0 0 0 23206.7 14797.2" />
<path d="M23663 14513
L24529 14513
" />
<path d="M23663 14001
L23663 14513
" />
<path d="M26431 12627
L26431 11179
" />
<path d="M26431 12931
L26431 14379
" />
<path d="M26431 12931
L26328 12931
" />
<path d="M26328 12931
L26328 12627
" />
<path d="M26328 12627
L26431 12627
" />
<path d="M23679 13879
L23679 11679
" />
<path d="M23328 13879
L23328 11679
" />
<path d="M23777 11179
L24529 11179
" />
<path d="M23777 14379
L24529 14379
" />
<path d="M23230 13879
L23230 11679
" />
<path d="M23777 11679
L23230 11679
" />
<path d="M23777 13879
L23230 13879
" />
<path d="M23777 14379
L23777 11179
" />
<path d="M24529 14379
L26431 14379
" />
<path d="M26431 11179
L24529 11179
" />
<path d="M26431 7179
L24529 7179
" />
<path d="M24529 10379
L26431 10379
" />
<path d="M23777 10379
L23777 7179
" />
<path d="M23777 9879
L23230 9879
" />
<path d="M23777 7679
L23230 7679
" />
<path d="M23230 9879
L23230 7679
" />
<path d="M23777 10379
L24529 10379
" />
<path d="M23777 7179
L24529 7179
" />
<path d="M23328 9879
L23328 7679
" />
<path d="M23679 9879
L23679 7679
" />
<path d="M26328 8627
L26431 8627
" />
<path d="M26328 8931
L26328 8627
" />
<path d="M26431 8931
L26328 8931
" />
<path d="M26431 8931
L26431 10379
" />
<path d="M26431 8627
L26431 7179
" />
<path d="M23663 10001
L23663 10513
" />
<path d="M23663 10513
L24529 10513
" />
<path d="M25042 16643
L25104 16643
" />
<path d="M25954 16643
L26016 16643
" />
<path d="M25954.7 16439.4 A590.551 590.551 0.0 0 0 25954.7 15619.6" />
<path d="M25104.4 15619.6 A590.551 590.551 0.0 0 0 25104.3 16439.4" />
<path d="M26016 16643.7 A783.465 783.465 0.0 0 0 25954.2 15371.1" />
<path d="M25104.9 15371.1 A783.465 783.465 0.0 0 0 25043.1 16643.7" />
<path d="M25104 4915
L25042 4915
" />
<path d="M26016 4915
L25954 4915
" />
<path d="M25954.2 6187.93 A783.465 783.465 0.0 0 0 26016 4915.35" />
<path d="M25043.1 4915.35 A783.465 783.465 0.0 0 0 25104.9 6187.93" />
<path d="M25954.7 5939.42 A590.551 590.551 0.0 0 0 25954.7 5119.7" />
<path d="M25104.3 5119.7 A590.551 590.551 0.0 0 0 25104.4 5939.42" />
<path d="M7860 2486
L3049 2486
" />
<path d="M3049 2486
L3049 8572
" />
<path d="M3049 8572
L7860 8572
" />
<path d="M7860 8572
L7860 2486
" />
<path d="M3639 2486
L4348 2486
" />
<path d="M4348 2486
L4348 8572
" />
<path d="M4348 8572
L3639 8572
" />
<path d="M3639 8572
L3639 2486
" />
<path d="M3049 3635
L3049 4423
" />
<path d="M3049 4423
L3639 4324
" />
<path d="M3639 4324
L3639 3734
" />
<path d="M3639 3734
L3049 3635
" />
<path d="M3049 6635
L3049 7423
" />
<path d="M3049 7423
L3639 7324
" />
<path d="M3639 7324
L3639 6734
" />
<path d="M3639 6734
L3049 6635
" />
<path d="M8175 4147
L7938 4029
" />
<path d="M7938 4029
L8175 3911
" />
<path d="M8175 3911
L8175 4147
" />
<path d="M8175 14411
L8175 14647
" />
<path d="M7938 14529
L8175 14411
" />
<path d="M8175 14647
L7938 14529
" />
<path d="M3639 17234
L3049 17135
" />
<path d="M3639 17824
L3639 17234
" />
<path d="M3049 17923
L3639 17824
" />
<path d="M3049 17135
L3049 17923
" />
<path d="M3639 14234
L3049 14135
" />
<path d="M3639 14824
L3639 14234
" />
<path d="M3049 14923
L3639 14824
" />
<path d="M3049 14135
L3049 14923
" />
<path d="M3639 19072
L3639 12986
" />
<path d="M4348 19072
L3639 19072
" />
<path d="M4348 12986
L4348 19072
" />
<path d="M3639 12986
L4348 12986
" />
<path d="M7860 19072
L7860 12986
" />
<path d="M3049 19072
L7860 19072
" />
<path d="M3049 12986
L3049 19072
" />
<path d="M7860 12986
L3049 12986
" />
<path d="M10043 9157
L9669 9157
" />
<path d="M7783 9157
L8157 9157
" />
<path d="M9669 8795
L8157 8795
" />
<path d="M9669 9519
L9669 8795
" />
<path d="M8157 9519
L9669 9519
" />
<path d="M8157 8795
L8157 9519
" />
<path d="M17667 6785
L18391 6785
" />
<path d="M18391 6785
L18391 5273
" />
<path d="M18391 5273
L17667 5273
" />
<path d="M17667 5273
L17667 6785
" />
<path d="M18029 7159
L18029 6785
" />
<path d="M18029 4899
L18029 5273
" />
<path d="M10043 10397
L9669 10397
" />
<path d="M7783 10397
L8157 10397
" />
<path d="M9669 10035
L8157 10035
" />
<path d="M9669 10759
L9669 10035
" />
<path d="M8157 10759
L9669 10759
" />
<path d="M8157 10035
L8157 10759
" />
<path d="M8157 11275
L8157 12000
" />
<path d="M8157 12000
L9669 12000
" />
<path d="M9669 12000
L9669 11275
" />
<path d="M9669 11275
L8157 11275
" />
<path d="M7783 11637
L8157 11637
" />
<path d="M10043 11637
L9669 11637
" />
<path d="M13899 13529
L14273 13529
" />
<path d="M16159 13529
L15785 13529
" />
<path d="M14273 13891
L15785 13891
" />
<path d="M14273 13167
L14273 13891
" />
<path d="M15785 13167
L14273 13167
" />
<path d="M15785 13891
L15785 13167
" />
<path d="M11285 13891
L11285 13167
" />
<path d="M11285 13167
L9773 13167
" />
<path d="M9773 13167
L9773 13891
" />
<path d="M9773 13891
L11285 13891
" />
<path d="M11659 13529
L11285 13529
" />
<path d="M9399 13529
L9773 13529
" />
<path d="M17159 17029
L16785 17029
" />
<path d="M14899 17029
L15273 17029
" />
<path d="M16785 16667
L15273 16667
" />
<path d="M16785 17391
L16785 16667
" />
<path d="M15273 17391
L16785 17391
" />
<path d="M15273 16667
L15273 17391
" />
<path d="M15785 14891
L15785 14167
" />
<path d="M15785 14167
L14273 14167
" />
<path d="M14273 14167
L14273 14891
" />
<path d="M14273 14891
L15785 14891
" />
<path d="M16159 14529
L15785 14529
" />
<path d="M13899 14529
L14273 14529
" />
<path d="M19029 13899
L19029 14273
" />
<path d="M19029 16159
L19029 15785
" />
<path d="M18667 14273
L18667 15785
" />
<path d="M19391 14273
L18667 14273
" />
<path d="M19391 15785
L19391 14273
" />
<path d="M18667 15785
L19391 15785
" />
<path d="M23273 3167
L23273 3891
" />
<path d="M23273 3891
L24785 3891
" />
<path d="M24785 3891
L24785 3167
" />
<path d="M24785 3167
L23273 3167
" />
<path d="M22899 3529
L23273 3529
" />
<path d="M25159 3529
L24785 3529
" />
<path d="M20899 6029
L21273 6029
" />
<path d="M23159 6029
L22785 6029
" />
<path d="M21273 6391
L22785 6391
" />
<path d="M21273 5667
L21273 6391
" />
<path d="M22785 5667
L21273 5667
" />
<path d="M22785 6391
L22785 5667
" />
<path d="M11135 4505
L10486 4505
" />
<path d="M10486 4505
L10486 7553
" />
<path d="M10486 7553
L12572 7553
" />
<path d="M12572 7553
L12572 4505
" />
<path d="M12572 4505
L11923 4505
" />
<path d="M11135.8 4505.91 A393.701 393.701 0.0 0 0 11923.2 4505.91" />
<path d="M12572 15505
L11923 15505
" />
<path d="M12572 18553
L12572 15505
" />
<path d="M10486 18553
L12572 18553
" />
<path d="M10486 15505
L10486 18553
" />
<path d="M11135 15505
L10486 15505
" />
<path d="M11135.8 15505.9 A393.701 393.701 0.0 0 0 11923.2 15505.9" />
</g>
<g style="fill:#008484; fill-opacity:0.0; 
stroke:#008484; stroke-width:59.0551; stroke-opacity:1; 
stroke-linecap:round; stroke-linejoin:round;">
<text x="17029.5" y="19726.4"
textLength="845.426" font-size="524.934" lengthAdjust="spacingAndGlyphs"
text-anchor="middle" opacity="0">P1</text>
<path d="M16738 19707
L16738 19313
L16888 19313
L16926 19332
L16945 19351
L16963 19388
L16963 19445
L16945 19482
L16926 19501
L16888 19520
L16738 19520
" />
<path d="M17338 19707
L17113 19707
" />
<path d="M17226 19707
L17226 19313
L17188 19370
L17151 19407
L17113 19426
" />
<text x="25129.5" y="19726.4"
textLength="845.426" font-size="524.934" lengthAdjust="spacingAndGlyphs"
text-anchor="middle" opacity="0">P2</text>
<path d="M24838 19707
L24838 19313
L24988 19313
L25026 19332
L25045 19351
L25063 19388
L25063 19445
L25045 19482
L25026 19501
L24988 19520
L24838 19520
" />
<path d="M25213 19351
L25232 19332
L25270 19313
L25363 19313
L25401 19332
L25420 19351
L25438 19388
L25438 19426
L25420 19482
L25195 19707
L25438 19707
" />
<text x="14429.5" y="2826.38"
textLength="845.426" font-size="524.934" lengthAdjust="spacingAndGlyphs"
text-anchor="middle" opacity="0">P3</text>
<path d="M14138 2807
L14138 2413
L14288 2413
L14326 2432
L14345 2451
L14363 2488
L14363 2545
L14345 2582
L14326 2601
L14288 2620
L14138 2620
" />
<path d="M14495 2413
L14738 2413
L14607 2563
L14663 2563
L14701 2582
L14720 2601
L14738 2638
L14738 2732
L14720 2770
L14701 2788
L14663 2807
L14551 2807
L14513 2788
L14495 2770
" />
<text x="24029.5" y="2826.38"
textLength="845.426" font-size="524.934" lengthAdjust="spacingAndGlyphs"
text-anchor="middle" opacity="0">P4</text>
<path d="M23738 2807
L23738 2413
L23888 2413
L23926 2432
L23945 2451
L23963 2488
L23963 2545
L23945 2582
L23926 2601
L23888 2620
L23738 2620
" />
<path d="M24301 2545
L24301 2807
" />
<path d="M24207 2395
L24113 2676
L24357 2676
" />
<text x="22025.6" y="14679.1"
textLength="1220.38" font-size="524.934" lengthAdjust="spacingAndGlyphs"
text-anchor="middle" opacity="0">R10</text>
<path d="M21772 14660
L21641 14472
" />
<path d="M21547 14660
L21547 14266
L21697 14266
L21735 14285
L21753 14304
L21772 14341
L21772 14397
L21753 14435
L21735 14454
L21697 14472
L21547 14472
" />
<path d="M22147 14660
L21922 14660
" />
<path d="M22034 14660
L22034 14266
L21997 14322
L21959 14360
L21922 14379
" />
<path d="M22391 14266
L22428 14266
L22466 14285
L22484 14304
L22503 14341
L22522 14416
L22522 14510
L22503 14585
L22484 14622
L22466 14641
L22428 14660
L22391 14660
L22353 14641
L22334 14622
L22316 14585
L22297 14510
L22297 14416
L22316 14341
L22334 14304
L22353 14285
L22391 14266
" />
<g transform="rotate(-90 22529.5 12777.6)">
<text x="22529.5" y="12974.4"
textLength="751.687" font-size="524.934" lengthAdjust="spacingAndGlyphs"
text-anchor="middle" opacity="0">J3</text>
</g>
<path d="M22313 12908
L22595 12908
L22651 12927
L22688 12965
L22707 13021
L22707 13058
" />
<path d="M22313 12758
L22313 12515
L22463 12646
L22463 12590
L22482 12552
L22501 12533
L22538 12515
L22632 12515
L22670 12533
L22688 12552
L22707 12590
L22707 12702
L22688 12740
L22670 12758
" />
<g transform="rotate(-90 22529.5 8777.56)">
<text x="22529.5" y="8974.41"
textLength="751.687" font-size="524.934" lengthAdjust="spacingAndGlyphs"
text-anchor="middle" opacity="0">J4</text>
</g>
<path d="M22313 8908
L22595 8908
L22651 8927
L22688 8965
L22707 9021
L22707 9058
" />
<path d="M22445 8552
L22707 8552
" />
<path d="M22295 8646
L22576 8740
L22576 8496
" />
<g transform="rotate(-90 24364.2 16029.5)">
<text x="24364.2" y="16226.4"
textLength="845.426" font-size="524.934" lengthAdjust="spacingAndGlyphs"
text-anchor="middle" opacity="0">D1</text>
</g>
<path d="M24542 16320
L24148 16320
L24148 16226
L24167 16170
L24204 16132
L24242 16113
L24317 16095
L24373 16095
L24448 16113
L24486 16132
L24523 16170
L24542 16226
L24542 16320
" />
<path d="M24542 15720
L24542 15945
" />
<path d="M24542 15832
L24148 15832
L24204 15870
L24242 15907
L24261 15945
" />
<g transform="rotate(-90 26694.9 5529.53)">
<text x="26694.9" y="5726.38"
textLength="845.426" font-size="524.934" lengthAdjust="spacingAndGlyphs"
text-anchor="middle" opacity="0">D2</text>
</g>
<path d="M26872 5820
L26479 5820
L26479 5726
L26498 5670
L26535 5632
L26573 5613
L26648 5595
L26704 5595
L26779 5613
L26816 5632
L26854 5670
L26872 5726
L26872 5820
" />
<path d="M26516 5445
L26498 5426
L26479 5388
L26479 5295
L26498 5257
L26516 5238
L26554 5220
L26591 5220
L26648 5238
L26872 5463
L26872 5220
" />
<g transform="rotate(-90 8289.37 5529.53)">
<text x="8289.37" y="5726.38"
textLength="751.687" font-size="524.934" lengthAdjust="spacingAndGlyphs"
text-anchor="middle" opacity="0">J1</text>
</g>
<path d="M8073 5660
L8354 5660
L8411 5679
L8448 5717
L8467 5773
L8467 5810
" />
<path d="M8467 5267
L8467 5492
" />
<path d="M8467 5379
L8073 5379
L8130 5417
L8167 5454
L8186 5492
" />
<g transform="rotate(-90 8289.37 16029.5)">
<text x="8289.37" y="16226.4"
textLength="751.687" font-size="524.934" lengthAdjust="spacingAndGlyphs"
text-anchor="middle" opacity="0">J2</text>
</g>
<path d="M8073 16160
L8354 16160
L8411 16179
L8448 16217
L8467 16273
L8467 16310
" />
<path d="M8111 15992
L8092 15973
L8073 15935
L8073 15842
L8092 15804
L8111 15785
L8148 15767
L8186 15767
L8242 15785
L8467 16010
L8467 15767
" />
<text x="8913.39" y="8598.43"
textLength="845.426" font-size="524.934" lengthAdjust="spacingAndGlyphs"
text-anchor="middle" opacity="0">R1</text>
<path d="M8847 8579
L8716 8392
" />
<path d="M8622 8579
L8622 8185
L8772 8185
L8810 8204
L8829 8223
L8847 8260
L8847 8317
L8829 8354
L8810 8373
L8772 8392
L8622 8392
" />
<path d="M9222 8579
L8997 8579
" />
<path d="M9110 8579
L9110 8185
L9072 8242
L9035 8279
L8997 8298
" />
<g transform="rotate(-90 17273.6 6029.53)">
<text x="17273.6" y="6226.38"
textLength="845.426" font-size="524.934" lengthAdjust="spacingAndGlyphs"
text-anchor="middle" opacity="0">R2</text>
</g>
<path d="M17451 6095
L17264 6226
" />
<path d="M17451 6320
L17058 6320
L17058 6170
L17076 6132
L17095 6113
L17133 6095
L17189 6095
L17226 6113
L17245 6132
L17264 6170
L17264 6320
" />
<path d="M17095 5945
L17076 5926
L17058 5888
L17058 5795
L17076 5757
L17095 5738
L17133 5720
L17170 5720
L17226 5738
L17451 5963
L17451 5720
" />
<text x="8913.39" y="9838.58"
textLength="845.426" font-size="524.934" lengthAdjust="spacingAndGlyphs"
text-anchor="middle" opacity="0">R3</text>
<path d="M8847 9819
L8716 9632
" />
<path d="M8622 9819
L8622 9426
L8772 9426
L8810 9444
L8829 9463
L8847 9501
L8847 9557
L8829 9594
L8810 9613
L8772 9632
L8622 9632
" />
<path d="M8979 9426
L9222 9426
L9091 9576
L9147 9576
L9185 9594
L9203 9613
L9222 9651
L9222 9744
L9203 9782
L9185 9801
L9147 9819
L9035 9819
L8997 9801
L8979 9782
" />
<text x="8913.39" y="11078.7"
textLength="845.426" font-size="524.934" lengthAdjust="spacingAndGlyphs"
text-anchor="middle" opacity="0">R4</text>
<path d="M8847 11059
L8716 10872
" />
<path d="M8622 11059
L8622 10666
L8772 10666
L8810 10685
L8829 10703
L8847 10741
L8847 10797
L8829 10835
L8810 10853
L8772 10872
L8622 10872
" />
<path d="M9185 10797
L9185 11059
" />
<path d="M9091 10647
L8997 10928
L9241 10928
" />
<text x="15029.5" y="14482.3"
textLength="845.426" font-size="524.934" lengthAdjust="spacingAndGlyphs"
text-anchor="middle" opacity="0">R5</text>
<path d="M14963 14463
L14832 14276
" />
<path d="M14738 14463
L14738 14069
L14888 14069
L14926 14088
L14945 14107
L14963 14144
L14963 14201
L14945 14238
L14926 14257
L14888 14276
L14738 14276
" />
<path d="M15320 14069
L15132 14069
L15113 14257
L15132 14238
L15170 14219
L15263 14219
L15301 14238
L15320 14257
L15338 14294
L15338 14388
L15320 14426
L15301 14444
L15263 14463
L15170 14463
L15132 14444
L15113 14426
" />
<text x="10529.5" y="14482.3"
textLength="845.426" font-size="524.934" lengthAdjust="spacingAndGlyphs"
text-anchor="middle" opacity="0">R6</text>
<path d="M10463 14463
L10332 14276
" />
<path d="M10238 14463
L10238 14069
L10388 14069
L10426 14088
L10445 14107
L10463 14144
L10463 14201
L10445 14238
L10426 14257
L10388 14276
L10238 14276
" />
<path d="M10801 14069
L10726 14069
L10688 14088
L10670 14107
L10632 14163
L10613 14238
L10613 14388
L10632 14426
L10651 14444
L10688 14463
L10763 14463
L10801 14444
L10820 14426
L10838 14388
L10838 14294
L10820 14257
L10801 14238
L10763 14219
L10688 14219
L10651 14238
L10632 14257
L10613 14294
" />
<text x="16029.5" y="16470.5"
textLength="845.426" font-size="524.934" lengthAdjust="spacingAndGlyphs"
text-anchor="middle" opacity="0">R7</text>
<path d="M15963 16451
L15832 16264
" />
<path d="M15738 16451
L15738 16058
L15888 16058
L15926 16076
L15945 16095
L15963 16133
L15963 16189
L15945 16226
L15926 16245
L15888 16264
L15738 16264
" />
<path d="M16095 16058
L16357 16058
L16188 16451
" />
<text x="15029.5" y="15482.3"
textLength="845.426" font-size="524.934" lengthAdjust="spacingAndGlyphs"
text-anchor="middle" opacity="0">R8</text>
<path d="M14963 15463
L14832 15276
" />
<path d="M14738 15463
L14738 15069
L14888 15069
L14926 15088
L14945 15107
L14963 15144
L14963 15201
L14945 15238
L14926 15257
L14888 15276
L14738 15276
" />
<path d="M15188 15238
L15151 15219
L15132 15201
L15113 15163
L15113 15144
L15132 15107
L15151 15088
L15188 15069
L15263 15069
L15301 15088
L15320 15107
L15338 15144
L15338 15163
L15320 15201
L15301 15219
L15263 15238
L15188 15238
L15151 15257
L15132 15276
L15113 15313
L15113 15388
L15132 15426
L15151 15444
L15188 15463
L15263 15463
L15301 15444
L15320 15426
L15338 15388
L15338 15313
L15320 15276
L15301 15257
L15263 15238
" />
<g transform="rotate(-90 18273.6 15029.5)">
<text x="18273.6" y="15226.4"
textLength="845.426" font-size="524.934" lengthAdjust="spacingAndGlyphs"
text-anchor="middle" opacity="0">R9</text>
</g>
<path d="M18451 15095
L18264 15226
" />
<path d="M18451 15320
L18058 15320
L18058 15170
L18076 15132
L18095 15113
L18133 15095
L18189 15095
L18226 15113
L18245 15132
L18264 15170
L18264 15320
" />
<path d="M18451 14907
L18451 14832
L18432 14795
L18414 14776
L18357 14738
L18282 14720
L18133 14720
L18095 14738
L18076 14757
L18058 14795
L18058 14870
L18076 14907
L18095 14926
L18133 14945
L18226 14945
L18264 14926
L18282 14907
L18301 14870
L18301 14795
L18282 14757
L18264 14738
L18226 14720
" />
<text x="24029.5" y="2970.47"
textLength="1220.38" font-size="524.934" lengthAdjust="spacingAndGlyphs"
text-anchor="middle" opacity="0">R11</text>
<path d="M23776 2951
L23645 2764
" />
<path d="M23551 2951
L23551 2558
L23701 2558
L23738 2576
L23757 2595
L23776 2633
L23776 2689
L23757 2726
L23738 2745
L23701 2764
L23551 2764
" />
<path d="M24151 2951
L23926 2951
" />
<path d="M24038 2951
L24038 2558
L24001 2614
L23963 2651
L23926 2670
" />
<path d="M24526 2951
L24301 2951
" />
<path d="M24413 2951
L24413 2558
L24376 2614
L24338 2651
L24301 2670
" />
<text x="22029.5" y="6982.28"
textLength="1220.38" font-size="524.934" lengthAdjust="spacingAndGlyphs"
text-anchor="middle" opacity="0">R12</text>
<path d="M21776 6963
L21645 6776
" />
<path d="M21551 6963
L21551 6569
L21701 6569
L21738 6588
L21757 6607
L21776 6644
L21776 6701
L21757 6738
L21738 6757
L21701 6776
L21551 6776
" />
<path d="M22151 6963
L21926 6963
" />
<path d="M22038 6963
L22038 6569
L22001 6626
L21963 6663
L21926 6682
" />
<path d="M22301 6607
L22320 6588
L22357 6569
L22451 6569
L22488 6588
L22507 6607
L22526 6644
L22526 6682
L22507 6738
L22282 6963
L22526 6963
" />
<text x="11529.5" y="4309.06"
textLength="864.173" font-size="524.934" lengthAdjust="spacingAndGlyphs"
text-anchor="middle" opacity="0">U1</text>
<path d="M11229 3896
L11229 4215
L11248 4252
L11267 4271
L11304 4290
L11379 4290
L11417 4271
L11435 4252
L11454 4215
L11454 3896
" />
<path d="M11848 4290
L11623 4290
" />
<path d="M11735 4290
L11735 3896
L11698 3952
L11660 3990
L11623 4009
" />
<text x="11529.5" y="15309.1"
textLength="864.173" font-size="524.934" lengthAdjust="spacingAndGlyphs"
text-anchor="middle" opacity="0">U2</text>
<path d="M11229 14896
L11229 15215
L11248 15252
L11267 15271
L11304 15290
L11379 15290
L11417 15271
L11435 15252
L11454 15215
L11454 14896
" />
<path d="M11623 14934
L11642 14915
L11679 14896
L11773 14896
L11810 14915
L11829 14934
L11848 14971
L11848 15009
L11829 15065
L11604 15290
L11848 15290
" />
<g >
</g>
</g>
<g style="fill:#000000; fill-opacity:0.0; 
stroke:#000000; stroke-width:59.0551; stroke-opacity:1; 
stroke-linecap:round; stroke-linejoin:round;">
</g>
<g style="fill:#C2C200; fill-opacity:0.0; 
stroke:#C2C200; stroke-width:59.0551; stroke-opacity:1; 
stroke-linecap:round; stroke-linejoin:round;">
<path d="M28529 1129
L27929 529
" />
<path d="M28529 5629
L28529 1129
" />
<path d="M29529 6629
L28529 5629
" />
<path d="M29529 19529
L29529 6629
" />
<path d="M28529 20529
L29529 19529
" />
<path d="M28529 21529
L28529 20529
" />
<path d="M2529 21529
L28529 21529
" />
<path d="M2529 529
L2529 21529
" />
<path d="M27929 529
L2529 529
" />
<g >
</g>
<g >
</g>
<g >
</g>
<g >
</g>
<g >
</g>
<g >
</g>
<g >
</g>
<g >
</g>
<g >
</g>
<g >
</g>
<g >
</g>
<g >
</g>
<g >
</g>
<g >
</g>
<g >
</g>
<g >
</g>
<g >
</g>
<g >
</g>
<g >
</g>
<g >
</g>
<g >
</g>
<g >
</g>
<g >
</g>
<g >
</g>
<g >
</g>
<g >
</g>
<g >
</g>
<g >
</g>
<g >
</g>
</g> 
</svg>
