<?xml version="1.0" standalone="no"?>
 <!DOCTYPE svg PUBLIC "-//W3C//DTD SVG 1.1//EN" 
 "http://www.w3.org/Graphics/SVG/1.1/DTD/svg11.dtd"> 
<svg
  xmlns:svg="http://www.w3.org/2000/svg"
  xmlns="http://www.w3.org/2000/svg"
  xmlns:xlink="http://www.w3.org/1999/xlink"
  version="1.1"
  width="7.736840cm" height="5.582920cm" viewBox="0 0 30460 21980">
<title>SVG Picture created as new-F_Cu.svg date 2021/06/07 21:12:37 </title>
  <desc>Picture generated by PCBNEW </desc>
<g style="fill:#000000; fill-opacity:1;stroke:#000000; stroke-opacity:1;
stroke-linecap:round; stroke-linejoin:round;"
 transform="translate(0 0) scale(1 1)">
</g>
<g style="fill:#000000; fill-opacity:0.0; 
stroke:#000000; stroke-width:-0.000393701; stroke-opacity:1; 
stroke-linecap:round; stroke-linejoin:round;">
<g >
</g>
<g style="fill:#848400; fill-opacity:0.0; 
stroke:#848400; stroke-width:-0.000393701; stroke-opacity:1; 
stroke-linecap:round; stroke-linejoin:round;">
</g>
<g style="fill:#848400; fill-opacity:0.0; 
stroke:#848400; stroke-width:680; stroke-opacity:1; 
stroke-linecap:round; stroke-linejoin:round;">
<path d="M13529 20469
L13529 20589
" />
<path d="M14529 20469
L14529 20589
" />
<path d="M15529 20469
L15529 20589
" />
<path d="M16529 20469
L16529 20589
" />
<path d="M17529 20469
L17529 20589
" />
<path d="M18529 20469
L18529 20589
" />
<path d="M19529 20469
L19529 20589
" />
<path d="M20529 20469
L20529 20589
" />
</g>
<g >
</g>
<g style="fill:#848400; fill-opacity:0.0; 
stroke:#848400; stroke-width:680; stroke-opacity:1; 
stroke-linecap:round; stroke-linejoin:round;">
<path d="M22529 20469
L22529 20589
" />
<path d="M23529 20469
L23529 20589
" />
<path d="M24529 20469
L24529 20589
" />
<path d="M25529 20469
L25529 20589
" />
<path d="M26529 20469
L26529 20589
" />
<path d="M27529 20469
L27529 20589
" />
</g>
<g >
</g>
<g style="fill:#848400; fill-opacity:0.0; 
stroke:#848400; stroke-width:680; stroke-opacity:1; 
stroke-linecap:round; stroke-linejoin:round;">
<path d="M9929 1469
L9929 1589
" />
<path d="M10929 1469
L10929 1589
" />
<path d="M11929 1469
L11929 1589
" />
<path d="M12929 1469
L12929 1589
" />
<path d="M13929 1469
L13929 1589
" />
<path d="M14929 1469
L14929 1589
" />
<path d="M15929 1469
L15929 1589
" />
<path d="M16929 1469
L16929 1589
" />
<path d="M17929 1469
L17929 1589
" />
<path d="M18929 1469
L18929 1589
" />
</g>
<g >
</g>
<g style="fill:#848400; fill-opacity:0.0; 
stroke:#848400; stroke-width:680; stroke-opacity:1; 
stroke-linecap:round; stroke-linejoin:round;">
<path d="M20529 1469
L20529 1589
" />
<path d="M21529 1469
L21529 1589
" />
<path d="M22529 1469
L22529 1589
" />
<path d="M23529 1469
L23529 1589
" />
<path d="M24529 1469
L24529 1589
" />
<path d="M25529 1469
L25529 1589
" />
<path d="M26529 1469
L26529 1589
" />
<path d="M27529 1469
L27529 1589
" />
</g>
<g >
</g>
<g style="fill:#848400; fill-opacity:0.0; 
stroke:#848400; stroke-width:680; stroke-opacity:1; 
stroke-linecap:round; stroke-linejoin:round;">
</g>
<g style="fill:#848400; fill-opacity:1.0; 
stroke:#848400; stroke-width:0; stroke-opacity:1; 
stroke-linecap:round; stroke-linejoin:round;">
<circle cx="8029.53" cy="20529.5" r="800" /> 
</g>
<g style="fill:#848400; fill-opacity:1.0; 
stroke:#848400; stroke-width:39.3701; stroke-opacity:1; 
stroke-linecap:round; stroke-linejoin:round;">
</g>
<g >
</g>
<g style="fill:#848400; fill-opacity:1.0; 
stroke:#848400; stroke-width:39.3701; stroke-opacity:1; 
stroke-linecap:round; stroke-linejoin:round;">
</g>
<g style="fill:#848400; fill-opacity:1.0; 
stroke:#848400; stroke-width:0; stroke-opacity:1; 
stroke-linecap:round; stroke-linejoin:round;">
<circle cx="28529.5" cy="18529.5" r="800" /> 
</g>
<g style="fill:#848400; fill-opacity:1.0; 
stroke:#848400; stroke-width:39.3701; stroke-opacity:1; 
stroke-linecap:round; stroke-linejoin:round;">
</g>
<g >
</g>
<g style="fill:#848400; fill-opacity:1.0; 
stroke:#848400; stroke-width:39.3701; stroke-opacity:1; 
stroke-linecap:round; stroke-linejoin:round;">
</g>
<g style="fill:#848400; fill-opacity:1.0; 
stroke:#848400; stroke-width:0; stroke-opacity:1; 
stroke-linecap:round; stroke-linejoin:round;">
<circle cx="8529.53" cy="1529.53" r="800" /> 
</g>
<g style="fill:#848400; fill-opacity:1.0; 
stroke:#848400; stroke-width:39.3701; stroke-opacity:1; 
stroke-linecap:round; stroke-linejoin:round;">
</g>
<g >
</g>
<g style="fill:#848400; fill-opacity:1.0; 
stroke:#848400; stroke-width:39.3701; stroke-opacity:1; 
stroke-linecap:round; stroke-linejoin:round;">
</g>
<g style="fill:#848400; fill-opacity:1.0; 
stroke:#848400; stroke-width:0; stroke-opacity:1; 
stroke-linecap:round; stroke-linejoin:round;">
<circle cx="28529.5" cy="7529.53" r="800" /> 
</g>
<g style="fill:#848400; fill-opacity:1.0; 
stroke:#848400; stroke-width:39.3701; stroke-opacity:1; 
stroke-linecap:round; stroke-linejoin:round;">
</g>
<g >
</g>
<g style="fill:#848400; fill-opacity:1.0; 
stroke:#848400; stroke-width:39.3701; stroke-opacity:1; 
stroke-linecap:round; stroke-linejoin:round;">
</g>
<g style="fill:#848400; fill-opacity:1.0; 
stroke:#848400; stroke-width:0; stroke-opacity:1; 
stroke-linecap:round; stroke-linejoin:round;">
<circle cx="20529.5" cy="16529.5" r="314.961" /> 
</g>
<g style="fill:#848400; fill-opacity:1.0; 
stroke:#848400; stroke-width:39.3701; stroke-opacity:1; 
stroke-linecap:round; stroke-linejoin:round;">
</g>
<g style="fill:#848400; fill-opacity:1.0; 
stroke:#848400; stroke-width:0; stroke-opacity:1; 
stroke-linecap:round; stroke-linejoin:round;">
<circle cx="23521.7" cy="16529.5" r="314.961" /> 
</g>
<g style="fill:#848400; fill-opacity:1.0; 
stroke:#848400; stroke-width:39.3701; stroke-opacity:1; 
stroke-linecap:round; stroke-linejoin:round;">
</g>
<g >
</g>
<g style="fill:#848400; fill-opacity:1.0; 
stroke:#848400; stroke-width:39.3701; stroke-opacity:1; 
stroke-linecap:round; stroke-linejoin:round;">
</g>
<g style="fill:#848400; fill-opacity:1.0; 
stroke:#848400; stroke-width:0; stroke-opacity:1; 
stroke-linecap:round; stroke-linejoin:round;">
<circle cx="24529.5" cy="12002" r="590.551" /> 
</g>
<g style="fill:#848400; fill-opacity:1.0; 
stroke:#848400; stroke-width:39.3701; stroke-opacity:1; 
stroke-linecap:round; stroke-linejoin:round;">
</g>
<g style="fill:#848400; fill-opacity:1.0; 
stroke:#848400; stroke-width:0; stroke-opacity:1; 
stroke-linecap:round; stroke-linejoin:round;">
<path style="fill:#848400; fill-opacity:1.0; 
stroke:#848400; stroke-width:0; stroke-opacity:1; 
stroke-linecap:round; stroke-linejoin:round;fill-rule:evenodd;"
d="M 25120.1,14120.1
23939,14120.1
23939,12939
25120.1,12939
Z" /> 
</g>
<g >
</g>
<g style="fill:#848400; fill-opacity:1.0; 
stroke:#848400; stroke-width:0; stroke-opacity:1; 
stroke-linecap:round; stroke-linejoin:round;">
<path style="fill:#848400; fill-opacity:1.0; 
stroke:#848400; stroke-width:0; stroke-opacity:1; 
stroke-linecap:round; stroke-linejoin:round;fill-rule:evenodd;"
d="M 25120.1,10120.1
23939,10120.1
23939,8938.98
25120.1,8938.98
Z" /> 
<circle cx="24529.5" cy="8001.97" r="590.551" /> 
</g>
<g style="fill:#848400; fill-opacity:1.0; 
stroke:#848400; stroke-width:39.3701; stroke-opacity:1; 
stroke-linecap:round; stroke-linejoin:round;">
</g>
<g >
</g>
<g style="fill:#848400; fill-opacity:1.0; 
stroke:#848400; stroke-width:39.3701; stroke-opacity:1; 
stroke-linecap:round; stroke-linejoin:round;">
</g>
<g style="fill:#848400; fill-opacity:1.0; 
stroke:#848400; stroke-width:0; stroke-opacity:1; 
stroke-linecap:round; stroke-linejoin:round;">
<circle cx="25529.5" cy="15529.5" r="354.331" /> 
</g>
<g style="fill:#848400; fill-opacity:1.0; 
stroke:#848400; stroke-width:39.3701; stroke-opacity:1; 
stroke-linecap:round; stroke-linejoin:round;">
</g>
<g style="fill:#848400; fill-opacity:1.0; 
stroke:#848400; stroke-width:0; stroke-opacity:1; 
stroke-linecap:round; stroke-linejoin:round;">
<path style="fill:#848400; fill-opacity:1.0; 
stroke:#848400; stroke-width:0; stroke-opacity:1; 
stroke-linecap:round; stroke-linejoin:round;fill-rule:evenodd;"
d="M 25883.9,16883.9
25175.2,16883.9
25175.2,16175.2
25883.9,16175.2
Z" /> 
</g>
<g >
</g>
<g style="fill:#848400; fill-opacity:1.0; 
stroke:#848400; stroke-width:0; stroke-opacity:1; 
stroke-linecap:round; stroke-linejoin:round;">
<path style="fill:#848400; fill-opacity:1.0; 
stroke:#848400; stroke-width:0; stroke-opacity:1; 
stroke-linecap:round; stroke-linejoin:round;fill-rule:evenodd;"
d="M 25175.2,4675.2
25883.9,4675.2
25883.9,5383.86
25175.2,5383.86
Z" /> 
<circle cx="25529.5" cy="6029.53" r="354.331" /> 
</g>
<g style="fill:#848400; fill-opacity:1.0; 
stroke:#848400; stroke-width:39.3701; stroke-opacity:1; 
stroke-linecap:round; stroke-linejoin:round;">
</g>
<g >
</g>
<g style="fill:#848400; fill-opacity:1.0; 
stroke:#848400; stroke-width:39.3701; stroke-opacity:1; 
stroke-linecap:round; stroke-linejoin:round;">
</g>
<g style="fill:#848400; fill-opacity:1.0; 
stroke:#848400; stroke-width:826.772; stroke-opacity:1; 
stroke-linecap:round; stroke-linejoin:round;">
</g>
<g style="fill:#848400; fill-opacity:0.0; 
stroke:#848400; stroke-width:826.772; stroke-opacity:1; 
stroke-linecap:round; stroke-linejoin:round;">
<path d="M7324 7029
L6734 7029
" />
</g>
<g style="fill:#848400; fill-opacity:0.0; 
stroke:#848400; stroke-width:0; stroke-opacity:1; 
stroke-linecap:round; stroke-linejoin:round;">
</g>
<g style="fill:#848400; fill-opacity:1.0; 
stroke:#848400; stroke-width:0; stroke-opacity:1; 
stroke-linecap:round; stroke-linejoin:round;">
<path style="fill:#848400; fill-opacity:1.0; 
stroke:#848400; stroke-width:0; stroke-opacity:1; 
stroke-linecap:round; stroke-linejoin:round;fill-rule:evenodd;"
d="M 7649.41,3616.62
7658.97,3618.03
7668.34,3620.38
7677.43,3623.63
7686.16,3627.76
7694.45,3632.73
7702.2,3638.48
7709.36,3644.97
7715.85,3652.13
7721.6,3659.89
7726.57,3668.17
7730.7,3676.9
7733.95,3686
7736.3,3695.37
7737.72,3704.92
7738.19,3714.57
7738.19,4344.49
7737.72,4354.14
7736.3,4363.69
7733.95,4373.06
7730.7,4382.15
7726.57,4390.89
7721.6,4399.17
7715.85,4406.93
7709.36,4414.09
7702.2,4420.57
7694.45,4426.33
7686.16,4431.29
7677.43,4435.42
7668.34,4438.68
7658.97,4441.02
7649.41,4442.44
7639.76,4442.91
6419.29,4442.91
6409.64,4442.44
6400.09,4441.02
6390.72,4438.68
6381.63,4435.42
6372.89,4431.29
6364.61,4426.33
6356.85,4420.57
6349.69,4414.09
6343.21,4406.93
6337.45,4399.17
6332.49,4390.89
6328.36,4382.15
6325.1,4373.06
6322.76,4363.69
6321.34,4354.14
6320.87,4344.49
6320.87,3714.57
6321.34,3704.92
6322.76,3695.37
6325.1,3686
6328.36,3676.9
6332.49,3668.17
6337.45,3659.89
6343.21,3652.13
6349.69,3644.97
6356.85,3638.48
6364.61,3632.73
6372.89,3627.76
6381.63,3623.63
6390.72,3620.38
6400.09,3618.03
6409.64,3616.62
6419.29,3616.14
7639.76,3616.14
Z" /> 
</g>
<g >
</g>
<g style="fill:#848400; fill-opacity:1.0; 
stroke:#848400; stroke-width:0; stroke-opacity:1; 
stroke-linecap:round; stroke-linejoin:round;">
<path style="fill:#848400; fill-opacity:1.0; 
stroke:#848400; stroke-width:0; stroke-opacity:1; 
stroke-linecap:round; stroke-linejoin:round;fill-rule:evenodd;"
d="M 7649.41,14116.6
7658.97,14118
7668.34,14120.4
7677.43,14123.6
7686.16,14127.8
7694.45,14132.7
7702.2,14138.5
7709.36,14145
7715.85,14152.1
7721.6,14159.9
7726.57,14168.2
7730.7,14176.9
7733.95,14186
7736.3,14195.4
7737.72,14204.9
7738.19,14214.6
7738.19,14844.5
7737.72,14854.1
7736.3,14863.7
7733.95,14873.1
7730.7,14882.2
7726.57,14890.9
7721.6,14899.2
7715.85,14906.9
7709.36,14914.1
7702.2,14920.6
7694.45,14926.3
7686.16,14931.3
7677.43,14935.4
7668.34,14938.7
7658.97,14941
7649.41,14942.4
7639.76,14942.9
6419.29,14942.9
6409.64,14942.4
6400.09,14941
6390.72,14938.7
6381.63,14935.4
6372.89,14931.3
6364.61,14926.3
6356.85,14920.6
6349.69,14914.1
6343.21,14906.9
6337.45,14899.2
6332.49,14890.9
6328.36,14882.2
6325.1,14873.1
6322.76,14863.7
6321.34,14854.1
6320.87,14844.5
6320.87,14214.6
6321.34,14204.9
6322.76,14195.4
6325.1,14186
6328.36,14176.9
6332.49,14168.2
6337.45,14159.9
6343.21,14152.1
6349.69,14145
6356.85,14138.5
6364.61,14132.7
6372.89,14127.8
6381.63,14123.6
6390.72,14120.4
6400.09,14118
6409.64,14116.6
6419.29,14116.1
7639.76,14116.1
Z" /> 
</g>
<g style="fill:#848400; fill-opacity:1.0; 
stroke:#848400; stroke-width:826.772; stroke-opacity:1; 
stroke-linecap:round; stroke-linejoin:round;">
</g>
<g style="fill:#848400; fill-opacity:0.0; 
stroke:#848400; stroke-width:826.772; stroke-opacity:1; 
stroke-linecap:round; stroke-linejoin:round;">
<path d="M7324 17529
L6734 17529
" />
</g>
<g >
</g>
<g style="fill:#848400; fill-opacity:0.0; 
stroke:#848400; stroke-width:826.772; stroke-opacity:1; 
stroke-linecap:round; stroke-linejoin:round;">
</g>
<g style="fill:#848400; fill-opacity:1.0; 
stroke:#848400; stroke-width:0; stroke-opacity:1; 
stroke-linecap:round; stroke-linejoin:round;">
<circle cx="7413.39" cy="9157.48" r="275.591" /> 
</g>
<g style="fill:#848400; fill-opacity:1.0; 
stroke:#848400; stroke-width:39.3701; stroke-opacity:1; 
stroke-linecap:round; stroke-linejoin:round;">
</g>
<g style="fill:#848400; fill-opacity:1.0; 
stroke:#848400; stroke-width:0; stroke-opacity:1; 
stroke-linecap:round; stroke-linejoin:round;">
<circle cx="10413.4" cy="9157.48" r="275.591" /> 
</g>
<g >
</g>
<g style="fill:#848400; fill-opacity:1.0; 
stroke:#848400; stroke-width:0; stroke-opacity:1; 
stroke-linecap:round; stroke-linejoin:round;">
<circle cx="18029.5" cy="4529.53" r="275.591" /> 
<circle cx="18029.5" cy="7529.53" r="275.591" /> 
</g>
<g style="fill:#848400; fill-opacity:1.0; 
stroke:#848400; stroke-width:39.3701; stroke-opacity:1; 
stroke-linecap:round; stroke-linejoin:round;">
</g>
<g >
</g>
<g style="fill:#848400; fill-opacity:1.0; 
stroke:#848400; stroke-width:39.3701; stroke-opacity:1; 
stroke-linecap:round; stroke-linejoin:round;">
</g>
<g style="fill:#848400; fill-opacity:1.0; 
stroke:#848400; stroke-width:0; stroke-opacity:1; 
stroke-linecap:round; stroke-linejoin:round;">
<circle cx="7413.39" cy="10397.6" r="275.591" /> 
</g>
<g style="fill:#848400; fill-opacity:1.0; 
stroke:#848400; stroke-width:39.3701; stroke-opacity:1; 
stroke-linecap:round; stroke-linejoin:round;">
</g>
<g style="fill:#848400; fill-opacity:1.0; 
stroke:#848400; stroke-width:0; stroke-opacity:1; 
stroke-linecap:round; stroke-linejoin:round;">
<circle cx="10413.4" cy="10397.6" r="275.591" /> 
</g>
<g >
</g>
<g style="fill:#848400; fill-opacity:1.0; 
stroke:#848400; stroke-width:0; stroke-opacity:1; 
stroke-linecap:round; stroke-linejoin:round;">
<circle cx="10413.4" cy="11637.8" r="275.591" /> 
<circle cx="7413.39" cy="11637.8" r="275.591" /> 
</g>
<g style="fill:#848400; fill-opacity:1.0; 
stroke:#848400; stroke-width:39.3701; stroke-opacity:1; 
stroke-linecap:round; stroke-linejoin:round;">
</g>
<g >
</g>
<g style="fill:#848400; fill-opacity:1.0; 
stroke:#848400; stroke-width:39.3701; stroke-opacity:1; 
stroke-linecap:round; stroke-linejoin:round;">
</g>
<g style="fill:#848400; fill-opacity:1.0; 
stroke:#848400; stroke-width:0; stroke-opacity:1; 
stroke-linecap:round; stroke-linejoin:round;">
<circle cx="16529.5" cy="13529.5" r="275.591" /> 
</g>
<g style="fill:#848400; fill-opacity:1.0; 
stroke:#848400; stroke-width:39.3701; stroke-opacity:1; 
stroke-linecap:round; stroke-linejoin:round;">
</g>
<g style="fill:#848400; fill-opacity:1.0; 
stroke:#848400; stroke-width:0; stroke-opacity:1; 
stroke-linecap:round; stroke-linejoin:round;">
<circle cx="13529.5" cy="13529.5" r="275.591" /> 
</g>
<g >
</g>
<g style="fill:#848400; fill-opacity:1.0; 
stroke:#848400; stroke-width:0; stroke-opacity:1; 
stroke-linecap:round; stroke-linejoin:round;">
<circle cx="9029.53" cy="13529.5" r="275.591" /> 
<circle cx="12029.5" cy="13529.5" r="275.591" /> 
</g>
<g style="fill:#848400; fill-opacity:1.0; 
stroke:#848400; stroke-width:39.3701; stroke-opacity:1; 
stroke-linecap:round; stroke-linejoin:round;">
</g>
<g >
</g>
<g style="fill:#848400; fill-opacity:1.0; 
stroke:#848400; stroke-width:39.3701; stroke-opacity:1; 
stroke-linecap:round; stroke-linejoin:round;">
</g>
<g style="fill:#848400; fill-opacity:1.0; 
stroke:#848400; stroke-width:0; stroke-opacity:1; 
stroke-linecap:round; stroke-linejoin:round;">
<circle cx="14529.5" cy="17029.5" r="275.591" /> 
</g>
<g style="fill:#848400; fill-opacity:1.0; 
stroke:#848400; stroke-width:39.3701; stroke-opacity:1; 
stroke-linecap:round; stroke-linejoin:round;">
</g>
<g style="fill:#848400; fill-opacity:1.0; 
stroke:#848400; stroke-width:0; stroke-opacity:1; 
stroke-linecap:round; stroke-linejoin:round;">
<circle cx="17529.5" cy="17029.5" r="275.591" /> 
</g>
<g >
</g>
<g style="fill:#848400; fill-opacity:1.0; 
stroke:#848400; stroke-width:0; stroke-opacity:1; 
stroke-linecap:round; stroke-linejoin:round;">
<circle cx="13529.5" cy="14529.5" r="275.591" /> 
<circle cx="16529.5" cy="14529.5" r="275.591" /> 
</g>
<g style="fill:#848400; fill-opacity:1.0; 
stroke:#848400; stroke-width:39.3701; stroke-opacity:1; 
stroke-linecap:round; stroke-linejoin:round;">
</g>
<g >
</g>
<g style="fill:#848400; fill-opacity:1.0; 
stroke:#848400; stroke-width:39.3701; stroke-opacity:1; 
stroke-linecap:round; stroke-linejoin:round;">
</g>
<g style="fill:#848400; fill-opacity:1.0; 
stroke:#848400; stroke-width:0; stroke-opacity:1; 
stroke-linecap:round; stroke-linejoin:round;">
<circle cx="19029.5" cy="16529.5" r="275.591" /> 
</g>
<g style="fill:#848400; fill-opacity:1.0; 
stroke:#848400; stroke-width:39.3701; stroke-opacity:1; 
stroke-linecap:round; stroke-linejoin:round;">
</g>
<g style="fill:#848400; fill-opacity:1.0; 
stroke:#848400; stroke-width:0; stroke-opacity:1; 
stroke-linecap:round; stroke-linejoin:round;">
<circle cx="19029.5" cy="13529.5" r="275.591" /> 
</g>
<g >
</g>
<g style="fill:#848400; fill-opacity:1.0; 
stroke:#848400; stroke-width:0; stroke-opacity:1; 
stroke-linecap:round; stroke-linejoin:round;">
<circle cx="25529.5" cy="3529.53" r="275.591" /> 
<circle cx="22529.5" cy="3529.53" r="275.591" /> 
</g>
<g style="fill:#848400; fill-opacity:1.0; 
stroke:#848400; stroke-width:39.3701; stroke-opacity:1; 
stroke-linecap:round; stroke-linejoin:round;">
</g>
<g >
</g>
<g style="fill:#848400; fill-opacity:1.0; 
stroke:#848400; stroke-width:39.3701; stroke-opacity:1; 
stroke-linecap:round; stroke-linejoin:round;">
</g>
<g style="fill:#848400; fill-opacity:1.0; 
stroke:#848400; stroke-width:0; stroke-opacity:1; 
stroke-linecap:round; stroke-linejoin:round;">
<circle cx="23529.5" cy="6029.53" r="275.591" /> 
</g>
<g style="fill:#848400; fill-opacity:1.0; 
stroke:#848400; stroke-width:39.3701; stroke-opacity:1; 
stroke-linecap:round; stroke-linejoin:round;">
</g>
<g style="fill:#848400; fill-opacity:1.0; 
stroke:#848400; stroke-width:0; stroke-opacity:1; 
stroke-linecap:round; stroke-linejoin:round;">
<circle cx="20529.5" cy="6029.53" r="275.591" /> 
</g>
<g >
</g>
<g style="fill:#848400; fill-opacity:1.0; 
stroke:#848400; stroke-width:0; stroke-opacity:1; 
stroke-linecap:round; stroke-linejoin:round;">
<circle cx="13029.5" cy="5029.53" r="314.961" /> 
<circle cx="10029.5" cy="7029.53" r="314.961" /> 
<circle cx="13029.5" cy="6029.53" r="314.961" /> 
<circle cx="10029.5" cy="6029.53" r="314.961" /> 
<circle cx="13029.5" cy="7029.53" r="314.961" /> 
<path style="fill:#848400; fill-opacity:1.0; 
stroke:#848400; stroke-width:0; stroke-opacity:1; 
stroke-linecap:round; stroke-linejoin:round;fill-rule:evenodd;"
d="M 9714.57,5344.49
9714.57,4714.57
10344.5,4714.57
10344.5,5344.49
Z" /> 
</g>
<g >
</g>
<g style="fill:#848400; fill-opacity:1.0; 
stroke:#848400; stroke-width:0; stroke-opacity:1; 
stroke-linecap:round; stroke-linejoin:round;">
<path style="fill:#848400; fill-opacity:1.0; 
stroke:#848400; stroke-width:0; stroke-opacity:1; 
stroke-linecap:round; stroke-linejoin:round;fill-rule:evenodd;"
d="M 9714.57,16344.5
9714.57,15714.6
10344.5,15714.6
10344.5,16344.5
Z" /> 
<circle cx="13029.5" cy="18029.5" r="314.961" /> 
<circle cx="10029.5" cy="17029.5" r="314.961" /> 
<circle cx="13029.5" cy="17029.5" r="314.961" /> 
<circle cx="10029.5" cy="18029.5" r="314.961" /> 
<circle cx="13029.5" cy="16029.5" r="314.961" /> 
</g>
<g >
</g>
<g style="fill:#C2C2C2; fill-opacity:1.0; 
stroke:#C2C2C2; stroke-width:0; stroke-opacity:1; 
stroke-linecap:round; stroke-linejoin:round;">
<circle cx="18029.5" cy="19029.5" r="118.11" /> 
</g>
<g style="fill:#C2C2C2; fill-opacity:1.0; 
stroke:#C2C2C2; stroke-width:39.3701; stroke-opacity:1; 
stroke-linecap:round; stroke-linejoin:round;">
</g>
<g style="fill:#C2C2C2; fill-opacity:1.0; 
stroke:#C2C2C2; stroke-width:0; stroke-opacity:1; 
stroke-linecap:round; stroke-linejoin:round;">
<circle cx="12529.5" cy="10643.7" r="118.11" /> 
</g>
<g style="fill:#C2C2C2; fill-opacity:1.0; 
stroke:#C2C2C2; stroke-width:39.3701; stroke-opacity:1; 
stroke-linecap:round; stroke-linejoin:round;">
</g>
<g >
</g>
<g style="fill:#840000; fill-opacity:1.0; 
stroke:#840000; stroke-width:39.3701; stroke-opacity:1; 
stroke-linecap:round; stroke-linejoin:round;">
</g>
<g style="fill:#840000; fill-opacity:1.0; 
stroke:#840000; stroke-width:98.4252; stroke-opacity:1; 
stroke-linecap:round; stroke-linejoin:round;">
</g>
<g style="fill:#840000; fill-opacity:0.0; 
stroke:#840000; stroke-width:98.4252; stroke-opacity:1; 
stroke-linecap:round; stroke-linejoin:round;">
<path d="M17529 20529
L17529 17029
" />
<path d="M17529 15029
L19029 13529
" />
<path d="M17529 17029
L17529 15029
" />
<path d="M15897 10397
L19029 13529
" />
<path d="M10413 10397
L15897 10397
" />
<path d="M7029 14529
L8029 14529
" />
<path d="M9029 15529
L9029 17029
" />
<path d="M8029 14529
L9029 15529
" />
<path d="M10029 17029
L9029 17029
" />
<path d="M10029 17029
L10529 17029
" />
<path d="M10529 17029
L12029 15529
" />
<path d="M15529 15529
L16529 14529
" />
<path d="M12029 15529
L15529 15529
" />
<path d="M7413 11637
L6637 11637
" />
<path d="M6637 11637
L6529 11529
" />
<path d="M6529 10041
L7413 9157
" />
<path d="M6529 11529
L6529 10041
" />
<path d="M7413 7413
L7029 7029
" />
<path d="M7413 9157
L7413 7413
" />
<path d="M9029 7029
L10029 6029
" />
<path d="M7029 7029
L9029 7029
" />
<path d="M12929 3129
L12929 1529
" />
<path d="M10029 6029
L12929 3129
" />
<path d="M16529 13529
L16529 14529
" />
<path d="M19029 16529
L20529 16529
" />
<path d="M25529 20251
L25529 20529
" />
<path d="M21807 16529
L25529 20251
" />
<path d="M20529 16529
L21807 16529
" />
<path d="M25529 3529
L25529 1529
" />
<path d="M13029 17029
L14529 17029
" />
<path d="M23529 20529
L22029 19029
" />
<path d="M22029 19029
L18029 19029
" />
<path d="M12529 6029
L13029 6029
" />
<path d="M11529 7029
L12529 6029
" />
<path d="M11529 8029
L11529 7029
" />
<path d="M9781 8029
L11529 8029
" />
<path d="M7413 10397
L9781 8029
" />
<path d="M10413 9157
L16901 9157
" />
<path d="M18029 8029
L18029 7529
" />
<path d="M16901 9157
L18029 8029
" />
<path d="M10413 11637
L11921 11637
" />
<path d="M12529 11029
L12529 10643
" />
<path d="M11921 11637
L12529 11029
" />
<path d="M13529 13529
L12029 13529
" />
<path d="M10029 15529
L12029 13529
" />
<path d="M10029 16029
L10029 15529
" />
<path d="M22139 3529
L21529 4139
" />
<path d="M22529 3529
L22139 3529
" />
<path d="M21529 11940
L22529 12940
" />
<path d="M21529 4139
L21529 11940
" />
<path d="M22529 12940
L22529 14529
" />
<path d="M23529 15529
L25529 15529
" />
<path d="M22529 14529
L23529 15529
" />
</g>
<g >
</g>
<g style="fill:#840000; fill-opacity:0.0; 
stroke:#840000; stroke-width:98.4252; stroke-opacity:1; 
stroke-linecap:round; stroke-linejoin:round;">
<g >
</g>
<g style="fill:#840000; fill-opacity:1.0; 
stroke:#840000; stroke-width:100; stroke-opacity:1; 
stroke-linecap:round; stroke-linejoin:round;">
<path style="fill:#840000; fill-opacity:1.0; 
stroke:#840000; stroke-width:100; stroke-opacity:1; 
stroke-linecap:round; stroke-linejoin:round;fill-rule:evenodd;"
d="M 7713.94,860.192
7599.03,1032.17
7519.88,1223.25
7479.53,1426.11
7479.53,1632.94
7519.88,1835.8
7599.03,2026.89
7713.94,2198.86
7860.19,2345.12
8032.17,2460.03
8223.25,2539.18
8426.11,2579.53
8632.94,2579.53
8835.8,2539.18
9026.89,2460.03
9198.86,2345.12
9345.12,2198.86
9460.03,2026.89
9481.89,1974.1
9510.32,2008.74
9600.16,2082.47
9702.65,2137.25
9813.87,2170.99
9929.53,2182.38
10045.2,2170.99
10156.4,2137.25
10258.9,2082.47
10348.7,2008.74
10422.5,1918.9
10429.5,1905.69
10436.6,1918.9
10510.3,2008.74
10600.2,2082.47
10702.7,2137.25
10813.9,2170.99
10929.5,2182.38
11045.2,2170.99
11156.4,2137.25
11258.9,2082.47
11348.7,2008.74
11422.5,1918.9
11429.5,1905.69
11436.6,1918.9
11510.3,2008.74
11600.2,2082.47
11702.7,2137.25
11813.9,2170.99
11929.5,2182.38
12045.2,2170.99
12156.4,2137.25
12258.9,2082.47
12348.7,2008.74
12422.5,1918.9
12430.9,1903.17
12489.2,1982.96
12574.4,2061.31
12673.3,2121.53
12782,2161.3
12788.2,2162.35
12879.5,2114.65
12879.5,1579.53
12871.7,1579.53
12871.7,1479.53
12879.5,1479.53
12879.5,944.403
12979.5,944.403
12979.5,1479.53
12987.4,1479.53
12987.4,1579.53
12979.5,1579.53
12979.5,2114.65
13070.9,2162.35
13077.1,2161.3
13185.8,2121.53
13284.7,2061.31
13369.9,1982.96
13428.2,1903.17
13436.6,1918.9
13510.3,2008.74
13600.2,2082.47
13702.7,2137.25
13813.9,2170.99
13929.5,2182.38
14045.2,2170.99
14156.4,2137.25
14258.9,2082.47
14348.7,2008.74
14422.5,1918.9
14429.5,1905.69
14436.6,1918.9
14510.3,2008.74
14600.2,2082.47
14702.7,2137.25
14813.9,2170.99
14929.5,2182.38
15045.2,2170.99
15156.4,2137.25
15258.9,2082.47
15348.7,2008.74
15422.5,1918.9
15429.5,1905.69
15436.6,1918.9
15510.3,2008.74
15600.2,2082.47
15702.7,2137.25
15813.9,2170.99
15929.5,2182.38
16045.2,2170.99
16156.4,2137.25
16258.9,2082.47
16348.7,2008.74
16422.5,1918.9
16429.5,1905.69
16436.6,1918.9
16510.3,2008.74
16600.2,2082.47
16702.7,2137.25
16813.9,2170.99
16929.5,2182.38
17045.2,2170.99
17156.4,2137.25
17258.9,2082.47
17348.7,2008.74
17422.5,1918.9
17429.5,1905.69
17436.6,1918.9
17510.3,2008.74
17600.2,2082.47
17702.7,2137.25
17813.9,2170.99
17929.5,2182.38
18045.2,2170.99
18156.4,2137.25
18258.9,2082.47
18348.7,2008.74
18422.5,1918.9
18429.5,1905.69
18436.6,1918.9
18510.3,2008.74
18600.2,2082.47
18702.7,2137.25
18813.9,2170.99
18929.5,2182.38
19045.2,2170.99
19156.4,2137.25
19258.9,2082.47
19348.7,2008.74
19422.5,1918.9
19477.3,1816.4
19511,1705.19
19519.5,1618.51
19519.5,1440.54
19939.5,1440.54
19939.5,1618.51
19948.1,1705.19
19981.8,1816.4
20036.6,1918.9
20110.3,2008.74
20200.2,2082.47
20302.7,2137.25
20413.9,2170.99
20529.5,2182.38
20645.2,2170.99
20756.4,2137.25
20858.9,2082.47
20948.7,2008.74
21022.5,1918.9
21029.5,1905.69
21036.6,1918.9
21110.3,2008.74
21200.2,2082.47
21302.7,2137.25
21413.9,2170.99
21529.5,2182.38
21645.2,2170.99
21756.4,2137.25
21858.9,2082.47
21948.7,2008.74
22022.5,1918.9
22029.5,1905.69
22036.6,1918.9
22110.3,2008.74
22200.2,2082.47
22302.7,2137.25
22413.9,2170.99
22529.5,2182.38
22645.2,2170.99
22756.4,2137.25
22858.9,2082.47
22948.7,2008.74
23022.5,1918.9
23029.5,1905.69
23036.6,1918.9
23110.3,2008.74
23200.2,2082.47
23302.7,2137.25
23413.9,2170.99
23529.5,2182.38
23645.2,2170.99
23756.4,2137.25
23858.9,2082.47
23948.7,2008.74
24022.5,1918.9
24029.5,1905.69
24036.6,1918.9
24110.3,2008.74
24200.2,2082.47
24302.7,2137.25
24413.9,2170.99
24529.5,2182.38
24645.2,2170.99
24756.4,2137.25
24858.9,2082.47
24948.7,2008.74
25022.5,1918.9
25029.5,1905.69
25036.6,1918.9
25110.3,2008.74
25200.2,2082.47
25230.3,2098.59
25230.3,3097.33
25194.5,3121.28
25121.3,3194.48
25063.8,3280.57
25024.1,3376.22
25003.9,3477.76
25003.9,3581.29
25024.1,3682.84
25063.8,3778.49
25121.3,3864.57
25194.5,3937.78
25280.6,3995.3
25376.2,4034.92
25477.8,4055.12
25581.3,4055.12
25682.8,4034.92
25778.5,3995.3
25864.6,3937.78
25937.8,3864.57
25995.3,3778.49
26034.9,3682.84
26055.1,3581.29
26055.1,3477.76
26034.9,3376.22
25995.3,3280.57
25937.8,3194.48
25864.6,3121.28
25828.7,3097.33
25828.7,2098.59
25858.9,2082.47
25948.7,2008.74
26022.5,1918.9
26029.5,1905.69
26036.6,1918.9
26110.3,2008.74
26200.2,2082.47
26302.7,2137.25
26413.9,2170.99
26529.5,2182.38
26645.2,2170.99
26756.4,2137.25
26858.9,2082.47
26948.7,2008.74
27022.5,1918.9
27029.5,1905.69
27036.6,1918.9
27110.3,2008.74
27200.2,2082.47
27302.7,2137.25
27413.9,2170.99
27529.5,2182.38
27645.2,2170.99
27756.4,2137.25
27858.9,2082.47
27948.7,2008.74
28022.5,1918.9
28077.3,1816.4
28111,1705.19
28119.5,1618.51
28119.5,1440.54
28111,1353.87
28077.3,1242.65
28022.5,1140.16
27948.7,1050.32
27858.9,976.587
27756.4,921.802
27645.2,888.065
27529.5,876.673
27413.9,888.065
27302.7,921.802
27200.2,976.587
27110.3,1050.32
27036.6,1140.16
27029.5,1153.36
27022.5,1140.16
26948.7,1050.32
26858.9,976.587
26756.4,921.802
26645.2,888.065
26529.5,876.673
26413.9,888.065
26302.7,921.802
26200.2,976.587
26110.3,1050.32
26036.6,1140.16
26029.5,1153.36
26022.5,1140.16
25948.7,1050.32
25858.9,976.587
25756.4,921.802
25645.2,888.065
25529.5,876.673
25413.9,888.065
25302.7,921.802
25200.2,976.587
25110.3,1050.32
25036.6,1140.16
25029.5,1153.36
25022.5,1140.16
24948.7,1050.32
24858.9,976.587
24756.4,921.802
24645.2,888.065
24529.5,876.673
24413.9,888.065
24302.7,921.802
24200.2,976.587
24110.3,1050.32
24036.6,1140.16
24029.5,1153.36
24022.5,1140.16
23948.7,1050.32
23858.9,976.587
23756.4,921.802
23645.2,888.065
23529.5,876.673
23413.9,888.065
23302.7,921.802
23200.2,976.587
23110.3,1050.32
23036.6,1140.16
23029.5,1153.36
23022.5,1140.16
22948.7,1050.32
22858.9,976.587
22756.4,921.802
22645.2,888.065
22529.5,876.673
22413.9,888.065
22302.7,921.802
22200.2,976.587
22110.3,1050.32
22036.6,1140.16
22029.5,1153.36
22022.5,1140.16
21948.7,1050.32
21858.9,976.587
21756.4,921.802
21645.2,888.065
21529.5,876.673
21413.9,888.065
21302.7,921.802
21200.2,976.587
21110.3,1050.32
21036.6,1140.16
21029.5,1153.36
21022.5,1140.16
20948.7,1050.32
20858.9,976.587
20756.4,921.802
20645.2,888.065
20529.5,876.673
20413.9,888.065
20302.7,921.802
20200.2,976.587
20110.3,1050.32
20036.6,1140.16
19981.8,1242.65
19948.1,1353.87
19939.5,1440.54
19519.5,1440.54
19519.5,1440.54
19511,1353.87
19477.3,1242.65
19422.5,1140.16
19348.7,1050.32
19258.9,976.587
19156.4,921.802
19045.2,888.065
18929.5,876.673
18813.9,888.065
18702.7,921.802
18600.2,976.587
18510.3,1050.32
18436.6,1140.16
18429.5,1153.36
18422.5,1140.16
18348.7,1050.32
18258.9,976.587
18156.4,921.802
18045.2,888.065
17929.5,876.673
17813.9,888.065
17702.7,921.802
17600.2,976.587
17510.3,1050.32
17436.6,1140.16
17429.5,1153.36
17422.5,1140.16
17348.7,1050.32
17258.9,976.587
17156.4,921.802
17045.2,888.065
16929.5,876.673
16813.9,888.065
16702.7,921.802
16600.2,976.587
16510.3,1050.32
16436.6,1140.16
16429.5,1153.36
16422.5,1140.16
16348.7,1050.32
16258.9,976.587
16156.4,921.802
16045.2,888.065
15929.5,876.673
15813.9,888.065
15702.7,921.802
15600.2,976.587
15510.3,1050.32
15436.6,1140.16
15429.5,1153.36
15422.5,1140.16
15348.7,1050.32
15258.9,976.587
15156.4,921.802
15045.2,888.065
14929.5,876.673
14813.9,888.065
14702.7,921.802
14600.2,976.587
14510.3,1050.32
14436.6,1140.16
14429.5,1153.36
14422.5,1140.16
14348.7,1050.32
14258.9,976.587
14156.4,921.802
14045.2,888.065
13929.5,876.673
13813.9,888.065
13702.7,921.802
13600.2,976.587
13510.3,1050.32
13436.6,1140.16
13428.2,1155.89
13369.9,1076.09
13284.7,997.743
13185.8,937.526
13077.1,897.753
13070.9,896.71
12979.5,944.403
12879.5,944.403
12788.2,896.71
12782,897.753
12673.3,937.526
12574.4,997.743
12489.2,1076.09
12430.9,1155.89
12422.5,1140.16
12348.7,1050.32
12258.9,976.587
12156.4,921.802
12045.2,888.065
11929.5,876.673
11813.9,888.065
11702.7,921.802
11600.2,976.587
11510.3,1050.32
11436.6,1140.16
11429.5,1153.36
11422.5,1140.16
11348.7,1050.32
11258.9,976.587
11156.4,921.802
11045.2,888.065
10929.5,876.673
10813.9,888.065
10702.7,921.802
10600.2,976.587
10510.3,1050.32
10436.6,1140.16
10429.5,1153.36
10422.5,1140.16
10348.7,1050.32
10258.9,976.587
10156.4,921.802
10045.2,888.065
9929.53,876.673
9813.87,888.065
9702.65,921.802
9600.16,976.587
9510.32,1050.32
9481.89,1084.95
9460.03,1032.17
9345.12,860.192
9293.98,809.056
27813.7,809.056
28250,1245.31
28250,5615.8
28248.6,5629.53
28250,5643.26
28250,5643.26
28254,5684.32
28270,5737.02
28296,5785.58
28330.9,5828.14
28341.6,5836.89
28479.5,5974.84
28479.5,6479.53
28426.1,6479.53
28223.3,6519.88
28032.2,6599.03
27860.2,6713.94
27713.9,6860.19
27599,7032.17
27519.9,7223.25
27479.5,7426.11
27479.5,7632.94
27519.9,7835.8
27599,8026.89
27713.9,8198.86
27860.2,8345.12
28032.2,8460.03
28223.3,8539.18
28426.1,8579.53
28479.5,8579.53
28479.5,17479.5
28426.1,17479.5
28223.3,17519.9
28032.2,17599
27860.2,17713.9
27713.9,17860.2
27599,18032.2
27519.9,18223.3
27479.5,18426.1
27479.5,18632.9
27519.9,18835.8
27599,19026.9
27713.9,19198.9
27860.2,19345.1
28032.2,19460
28223.3,19539.2
28426.1,19579.5
28479.5,19579.5
28479.5,20184.2
28341.6,20322.2
28330.9,20330.9
28322.2,20341.6
28296,20373.5
28270,20422
28254,20474.7
28248.6,20529.5
28250,20543.3
28250,21250
8793.98,21250
8845.12,21198.9
8960.03,21026.9
9039.18,20835.8
9079.53,20632.9
9079.53,20426.1
9039.18,20223.3
8960.03,20032.2
8845.12,19860.2
8698.86,19713.9
8526.89,19599
8335.8,19519.9
8132.94,19479.5
7926.11,19479.5
7723.25,19519.9
7532.17,19599
7360.19,19713.9
7213.94,19860.2
7099.03,20032.2
7019.88,20223.3
6979.53,20426.1
6979.53,20632.9
7019.88,20835.8
7099.03,21026.9
7213.94,21198.9
7265.08,21250
2809.06,21250
2809.06,17529.5
6067.66,17529.5
6080.47,17659.6
6118.4,17784.6
6180,17899.9
6262.9,18000.9
6363.91,18083.8
6479.16,18145.4
6604.21,18183.3
6701.67,18192.9
7357.39,18192.9
7454.85,18183.3
7579.9,18145.4
7695.14,18083.8
7796.16,18000.9
7818.31,17973.9
9464.57,17973.9
9464.57,18085.2
9486.28,18194.3
9528.87,18297.1
9590.69,18389.7
9669.39,18468.4
9761.92,18530.2
9864.74,18572.8
9973.88,18594.5
10085.2,18594.5
10194.3,18572.8
10297.1,18530.2
10389.7,18468.4
10468.4,18389.7
10530.2,18297.1
10572.8,18194.3
10594.5,18085.2
10594.5,17973.9
10572.8,17864.7
10530.2,17761.9
10468.4,17669.4
10389.7,17590.7
10297.1,17528.9
10293,17527.1
10366.2,17483.2
10448.2,17408.8
10514.2,17319.9
10561.5,17219.7
10577.5,17166.9
10529.5,17079.5
10079.5,17079.5
10079.5,17087.4
9979.53,17087.4
9979.53,17079.5
9529.56,17079.5
9481.53,17166.9
9497.54,17219.7
9544.87,17319.9
9610.82,17408.8
9692.86,17483.2
9766.09,17527.1
9761.92,17528.9
9669.39,17590.7
9590.69,17669.4
9528.87,17761.9
9486.28,17864.7
9464.57,17973.9
7818.31,17973.9
7879.06,17899.9
7940.66,17784.6
7978.59,17659.6
7991.4,17529.5
7978.59,17399.5
7940.66,17274.4
7879.06,17159.2
7796.16,17058.2
7695.14,16975.3
7579.9,16913.7
7454.85,16875.7
7357.39,16866.1
6701.67,16866.1
6604.21,16875.7
6479.16,16913.7
6363.91,16975.3
6262.9,17058.2
6180,17159.2
6118.4,17274.4
6080.47,17399.5
6067.66,17529.5
2809.06,17529.5
2809.06,15714.6
9463.36,15714.6
9463.36,16344.5
9468.18,16393.5
9482.48,16440.6
9505.69,16484.1
9536.94,16522.1
9575,16553.4
9618.43,16576.6
9665.56,16590.9
9675.23,16591.8
9610.82,16650.2
9544.87,16739.2
9497.54,16839.3
9481.53,16892.1
9529.56,16979.5
9979.53,16979.5
9979.53,16971.7
10079.5,16971.7
10079.5,16979.5
10529.5,16979.5
10577.5,16892.1
10561.5,16839.3
10514.2,16739.2
10448.2,16650.2
10383.8,16591.8
10393.5,16590.9
10440.6,16576.6
10484.1,16553.4
10522.1,16522.1
10553.4,16484.1
10576.6,16440.6
10590.9,16393.5
10595.7,16344.5
10595.7,15973.9
12464.6,15973.9
12464.6,16085.2
12486.3,16194.3
12528.9,16297.1
12590.7,16389.7
12669.4,16468.4
12760.9,16529.5
12669.4,16590.7
12590.7,16669.4
12528.9,16761.9
12486.3,16864.7
12464.6,16973.9
12464.6,17085.2
12486.3,17194.3
12528.9,17297.1
12590.7,17389.7
12669.4,17468.4
12760.9,17529.5
12669.4,17590.7
12590.7,17669.4
12528.9,17761.9
12486.3,17864.7
12464.6,17973.9
12464.6,18085.2
12486.3,18194.3
12528.9,18297.1
12590.7,18389.7
12669.4,18468.4
12761.9,18530.2
12864.7,18572.8
12973.9,18594.5
13085.2,18594.5
13194.3,18572.8
13297.1,18530.2
13389.7,18468.4
13468.4,18389.7
13530.2,18297.1
13572.8,18194.3
13594.5,18085.2
13594.5,17973.9
13572.8,17864.7
13530.2,17761.9
13468.4,17669.4
13389.7,17590.7
13298.1,17529.5
13389.7,17468.4
13468.4,17389.7
13509.1,17328.7
14097.3,17328.7
14121.3,17364.6
14194.5,17437.8
14280.6,17495.3
14376.2,17534.9
14477.8,17555.1
14581.3,17555.1
14682.8,17534.9
14778.5,17495.3
14864.6,17437.8
14937.8,17364.6
14995.3,17278.5
15034.9,17182.8
15055.1,17081.3
15055.1,16977.8
15034.9,16876.2
14995.3,16780.6
14937.8,16694.5
14864.6,16621.3
14778.5,16563.8
14682.8,16524.1
14581.3,16503.9
14477.8,16503.9
14376.2,16524.1
14280.6,16563.8
14194.5,16621.3
14121.3,16694.5
14097.3,16730.3
13509.1,16730.3
13468.4,16669.4
13389.7,16590.7
13298.1,16529.5
13389.7,16468.4
13468.4,16389.7
13530.2,16297.1
13572.8,16194.3
13594.5,16085.2
13594.5,15973.9
13572.8,15864.7
13530.2,15761.9
13468.4,15669.4
13389.7,15590.7
13297.1,15528.9
13194.3,15486.3
13085.2,15464.6
12973.9,15464.6
12864.7,15486.3
12761.9,15528.9
12669.4,15590.7
12590.7,15669.4
12528.9,15761.9
12486.3,15864.7
12464.6,15973.9
10595.7,15973.9
10595.7,15714.6
10590.9,15665.6
10576.6,15618.4
10553.4,15575
10522.1,15536.9
10484.1,15505.7
10479.1,15503.1
11935.5,14046.7
11977.8,14055.1
12081.3,14055.1
12182.8,14034.9
12278.5,13995.3
12364.6,13937.8
12437.8,13864.6
12461.7,13828.7
13097.3,13828.7
13121.3,13864.6
13194.5,13937.8
13280.6,13995.3
13363.2,14029.5
13280.6,14063.8
13194.5,14121.3
13121.3,14194.5
13063.8,14280.6
13024.1,14376.2
13003.9,14477.8
13003.9,14581.3
13024.1,14682.8
13063.8,14778.5
13121.3,14864.6
13194.5,14937.8
13280.6,14995.3
13376.2,15034.9
13477.8,15055.1
13581.3,15055.1
13682.8,15034.9
13778.5,14995.3
13864.6,14937.8
13910.1,14892.2
16237.5,14892.2
16260.9,14984.3
16354.8,15027.9
16455.4,15052.4
16558.8,15056.8
16661.2,15041
16758.4,15005.5
16798.1,14984.3
16821.5,14892.2
16529.5,14600.2
16237.5,14892.2
13910.1,14892.2
13937.8,14864.6
13995.3,14778.5
14034.9,14682.8
14055.1,14581.3
14055.1,14558.8
16002.2,14558.8
16018.1,14661.2
16053.6,14758.4
16074.8,14798.1
16166.8,14821.5
16458.8,14529.5
16600.2,14529.5
16892.2,14821.5
16984.3,14798.1
17027.9,14704.2
17052.4,14603.6
17056.8,14500.2
17041,14397.9
17005.5,14300.6
16984.3,14260.9
16892.2,14237.5
16600.2,14529.5
16458.8,14529.5
16166.8,14237.5
16074.8,14260.9
16031.1,14354.8
16006.6,14455.4
16002.2,14558.8
14055.1,14558.8
14055.1,14477.8
14034.9,14376.2
13995.3,14280.6
13937.8,14194.5
13864.6,14121.3
13778.5,14063.8
13695.9,14029.5
13778.5,13995.3
13864.6,13937.8
13910.1,13892.2
16237.5,13892.2
16260.9,13984.3
16354.8,14027.9
16364.4,14030.3
16300.6,14053.6
16260.9,14074.8
16237.5,14166.8
16529.5,14458.8
16821.5,14166.8
16798.1,14074.8
16704.2,14031.1
16694.6,14028.8
16758.4,14005.5
16798.1,13984.3
16821.5,13892.2
16529.5,13600.2
16237.5,13892.2
13910.1,13892.2
13937.8,13864.6
13995.3,13778.5
14034.9,13682.8
14055.1,13581.3
14055.1,13558.8
16002.2,13558.8
16018.1,13661.2
16053.6,13758.4
16074.8,13798.1
16166.8,13821.5
16458.8,13529.5
16600.2,13529.5
16892.2,13821.5
16984.3,13798.1
17027.9,13704.2
17052.4,13603.6
17056.8,13500.2
17041,13397.9
17005.5,13300.6
16984.3,13260.9
16892.2,13237.5
16600.2,13529.5
16458.8,13529.5
16166.8,13237.5
16074.8,13260.9
16031.1,13354.8
16006.6,13455.4
16002.2,13558.8
14055.1,13558.8
14055.1,13477.8
14034.9,13376.2
13995.3,13280.6
13937.8,13194.5
13910.1,13166.8
16237.5,13166.8
16529.5,13458.8
16821.5,13166.8
16798.1,13074.8
16704.2,13031.1
16603.6,13006.6
16500.2,13002.2
16397.9,13018.1
16300.6,13053.6
16260.9,13074.8
16237.5,13166.8
13910.1,13166.8
13864.6,13121.3
13778.5,13063.8
13682.8,13024.1
13581.3,13003.9
13477.8,13003.9
13376.2,13024.1
13280.6,13063.8
13194.5,13121.3
13121.3,13194.5
13097.3,13230.3
12461.7,13230.3
12437.8,13194.5
12364.6,13121.3
12278.5,13063.8
12182.8,13024.1
12081.3,13003.9
11977.8,13003.9
11876.2,13024.1
11780.6,13063.8
11694.5,13121.3
11621.3,13194.5
11563.8,13280.6
11524.1,13376.2
11503.9,13477.8
11503.9,13581.3
11512.3,13623.6
9828.35,15307.6
9816.93,15316.9
9807.56,15328.3
9807.56,15328.3
9779.54,15362.5
9751.75,15414.5
9739.84,15453.8
9736.92,15463.4
9714.57,15463.4
9665.56,15468.2
9618.43,15482.5
9575,15505.7
9536.94,15536.9
9505.69,15575
9482.48,15618.4
9468.18,15665.6
9463.36,15714.6
2809.06,15714.6
2809.06,14942.9
6069.66,14942.9
6074.48,14991.9
6088.78,15039
6111.99,15082.5
6143.23,15120.5
6181.3,15151.8
6224.73,15175
6271.86,15189.3
6320.87,15194.1
6917.03,15192.9
6979.53,15130.4
6979.53,14579.5
7079.53,14579.5
7079.53,15130.4
7142.03,15192.9
7738.19,15194.1
7787.2,15189.3
7834.32,15175
7877.75,15151.8
7915.82,15120.5
7947.06,15082.5
7970.28,15039
7984.57,14991.9
7989.4,14942.9
7988.19,14642
7925.69,14579.5
7079.53,14579.5
6979.53,14579.5
6133.37,14579.5
6070.87,14642
6069.66,14942.9
2809.06,14942.9
2809.06,14116.1
6069.66,14116.1
6070.87,14417
6133.37,14479.5
6979.53,14479.5
6979.53,13928.6
7079.53,13928.6
7079.53,14479.5
7925.69,14479.5
7988.19,14417
7989.4,14116.1
7984.57,14067.1
7970.28,14020
7947.06,13976.6
7915.82,13938.5
7877.75,13907.3
7834.32,13884.1
7787.2,13869.8
7738.19,13864.9
7142.03,13866.1
7079.53,13928.6
6979.53,13928.6
6917.03,13866.1
6320.87,13864.9
6271.86,13869.8
6224.73,13884.1
6181.3,13907.3
6143.23,13938.5
6111.99,13976.6
6088.78,14020
6074.48,14067.1
6069.66,14116.1
2809.06,14116.1
2809.06,13477.8
8503.94,13477.8
8503.94,13581.3
8524.14,13682.8
8563.76,13778.5
8621.28,13864.6
8694.48,13937.8
8780.57,13995.3
8876.22,14034.9
8977.76,14055.1
9081.29,14055.1
9182.84,14034.9
9278.49,13995.3
9364.57,13937.8
9437.78,13864.6
9495.3,13778.5
9534.92,13682.8
9555.12,13581.3
9555.12,13477.8
9534.92,13376.2
9495.3,13280.6
9437.78,13194.5
9364.57,13121.3
9278.49,13063.8
9182.84,13024.1
9081.29,13003.9
8977.76,13003.9
8876.22,13024.1
8780.57,13063.8
8694.48,13121.3
8621.28,13194.5
8563.76,13280.6
8524.14,13376.2
8503.94,13477.8
2809.06,13477.8
2809.06,12000.5
7121.39,12000.5
7144.8,12092.5
7238.68,12136.2
7339.27,12160.7
7442.71,12165.1
7545.02,12149.3
7642.27,12113.8
7681.97,12092.5
7705.38,12000.5
7413.39,11708.5
7121.39,12000.5
2809.06,12000.5
2809.06,11667.1
6886.07,11667.1
6901.92,11769.4
6937.43,11866.7
6958.65,11906.4
7050.68,11929.8
7342.68,11637.8
7484.1,11637.8
7776.09,11929.8
7868.13,11906.4
7911.79,11812.5
7936.29,11711.9
7940.71,11608.5
7924.85,11506.2
7889.35,11408.9
7868.13,11369.2
7776.09,11345.8
7484.1,11637.8
7342.68,11637.8
7050.68,11345.8
6958.65,11369.2
6914.99,11463.1
6890.48,11563.7
6886.07,11667.1
2809.06,11667.1
2809.06,11275.1
7121.39,11275.1
7413.39,11567.1
7705.38,11275.1
7681.97,11183.1
7588.09,11139.4
7487.5,11114.9
7384.07,11110.5
7281.76,11126.3
7184.5,11161.8
7144.8,11183.1
7121.39,11275.1
2809.06,11275.1
2809.06,10345.9
6887.8,10345.9
6887.8,10449.4
6907.99,10550.9
6947.61,10646.6
7005.13,10732.7
7078.34,10805.9
7164.43,10863.4
7260.08,10903
7361.62,10923.2
7465.15,10923.2
7566.7,10903
7662.35,10863.4
7748.43,10805.9
7821.64,10732.7
7879.16,10646.6
7918.78,10550.9
7938.98,10449.4
7938.98,10345.9
9887.8,10345.9
9887.8,10449.4
9907.99,10550.9
9947.61,10646.6
10005.1,10732.7
10078.3,10805.9
10164.4,10863.4
10260.1,10903
10361.6,10923.2
10465.2,10923.2
10566.7,10903
10662.3,10863.4
10748.4,10805.9
10821.6,10732.7
10845.6,10696.9
12164.8,10696.9
12175.6,10751.1
12203.3,10818.1
12230.3,10858.5
12230.3,10905.6
11797.3,11338.6
10845.6,11338.6
10821.6,11302.8
10748.4,11229.5
10662.3,11172
10566.7,11132.4
10465.2,11112.2
10361.6,11112.2
10260.1,11132.4
10164.4,11172
10078.3,11229.5
10005.1,11302.8
9947.61,11388.8
9907.99,11484.5
9887.8,11586
9887.8,11689.6
9907.99,11791.1
9947.61,11886.8
10005.1,11972.8
10078.3,12046
10164.4,12103.6
10260.1,12143.2
10361.6,12163.4
10465.2,12163.4
10566.7,12143.2
10662.3,12103.6
10748.4,12046
10821.6,11972.8
10845.6,11937
11906.6,11937
11921.3,11938.5
11936,11937
11936,11937
11979.9,11932.7
12036.3,11915.6
12088.3,11887.8
12133.9,11850.4
12143.2,11839
12730.7,11251.5
12742.1,11242.1
12779.5,11196.6
12807.3,11144.6
12824.4,11088.2
12828.7,11044.2
12828.7,11044.2
12830.2,11029.5
12828.7,11014.8
12828.7,10858.5
12855.7,10818.1
12883.5,10751.1
12894.3,10696.9
15773.7,10696.9
18512.3,13435.5
18503.9,13477.8
18503.9,13581.3
18512.3,13623.6
17328.3,14807.6
17316.9,14816.9
17307.6,14828.3
17307.6,14828.3
17279.5,14862.5
17251.8,14914.5
17234.6,14970.9
17228.9,15029.5
17230.3,15044.2
17230.3,16597.3
17194.5,16621.3
17121.3,16694.5
17063.8,16780.6
17024.1,16876.2
17003.9,16977.8
17003.9,17081.3
17024.1,17182.8
17063.8,17278.5
17121.3,17364.6
17194.5,17437.8
17230.3,17461.7
17230.3,19960.5
17200.2,19976.6
17110.3,20050.3
17036.6,20140.2
17029.5,20153.4
17022.5,20140.2
16948.7,20050.3
16858.9,19976.6
16756.4,19921.8
16645.2,19888.1
16529.5,19876.7
16413.9,19888.1
16302.7,19921.8
16200.2,19976.6
16110.3,20050.3
16036.6,20140.2
16029.5,20153.4
16022.5,20140.2
15948.7,20050.3
15858.9,19976.6
15756.4,19921.8
15645.2,19888.1
15529.5,19876.7
15413.9,19888.1
15302.7,19921.8
15200.2,19976.6
15110.3,20050.3
15036.6,20140.2
15029.5,20153.4
15022.5,20140.2
14948.7,20050.3
14858.9,19976.6
14756.4,19921.8
14645.2,19888.1
14529.5,19876.7
14413.9,19888.1
14302.7,19921.8
14200.2,19976.6
14110.3,20050.3
14036.6,20140.2
14029.5,20153.4
14022.5,20140.2
13948.7,20050.3
13858.9,19976.6
13756.4,19921.8
13645.2,19888.1
13529.5,19876.7
13413.9,19888.1
13302.7,19921.8
13200.2,19976.6
13110.3,20050.3
13036.6,20140.2
12981.8,20242.7
12948.1,20353.9
12939.5,20440.5
12939.5,20618.5
12948.1,20705.2
12981.8,20816.4
13036.6,20918.9
13110.3,21008.7
13200.2,21082.5
13302.7,21137.3
13413.9,21171
13529.5,21182.4
13645.2,21171
13756.4,21137.3
13858.9,21082.5
13948.7,21008.7
14022.5,20918.9
14029.5,20905.7
14036.6,20918.9
14110.3,21008.7
14200.2,21082.5
14302.7,21137.3
14413.9,21171
14529.5,21182.4
14645.2,21171
14756.4,21137.3
14858.9,21082.5
14948.7,21008.7
15022.5,20918.9
15029.5,20905.7
15036.6,20918.9
15110.3,21008.7
15200.2,21082.5
15302.7,21137.3
15413.9,21171
15529.5,21182.4
15645.2,21171
15756.4,21137.3
15858.9,21082.5
15948.7,21008.7
16022.5,20918.9
16029.5,20905.7
16036.6,20918.9
16110.3,21008.7
16200.2,21082.5
16302.7,21137.3
16413.9,21171
16529.5,21182.4
16645.2,21171
16756.4,21137.3
16858.9,21082.5
16948.7,21008.7
17022.5,20918.9
17029.5,20905.7
17036.6,20918.9
17110.3,21008.7
17200.2,21082.5
17302.7,21137.3
17413.9,21171
17529.5,21182.4
17645.2,21171
17756.4,21137.3
17858.9,21082.5
17948.7,21008.7
18022.5,20918.9
18030.9,20903.2
18089.2,20983
18174.4,21061.3
18273.3,21121.5
18382,21161.3
18388.2,21162.3
18479.5,21114.7
18479.5,20579.5
18579.5,20579.5
18579.5,21114.7
18670.9,21162.3
18677.1,21161.3
18785.8,21121.5
18884.7,21061.3
18969.9,20983
19029.5,20901.3
19089.2,20983
19174.4,21061.3
19273.3,21121.5
19382,21161.3
19388.2,21162.3
19479.5,21114.7
19479.5,20579.5
18579.5,20579.5
18479.5,20579.5
18471.7,20579.5
18471.7,20479.5
18479.5,20479.5
18479.5,19944.4
18579.5,19944.4
18579.5,20479.5
19479.5,20479.5
19479.5,19944.4
19579.5,19944.4
19579.5,20479.5
19587.4,20479.5
19587.4,20579.5
19579.5,20579.5
19579.5,21114.7
19670.9,21162.3
19677.1,21161.3
19785.8,21121.5
19884.7,21061.3
19969.9,20983
20028.2,20903.2
20036.6,20918.9
20110.3,21008.7
20200.2,21082.5
20302.7,21137.3
20413.9,21171
20529.5,21182.4
20645.2,21171
20756.4,21137.3
20858.9,21082.5
20948.7,21008.7
21022.5,20918.9
21077.3,20816.4
21111,20705.2
21119.5,20618.5
21119.5,20440.5
21111,20353.9
21077.3,20242.7
21022.5,20140.2
20948.7,20050.3
20858.9,19976.6
20756.4,19921.8
20645.2,19888.1
20529.5,19876.7
20413.9,19888.1
20302.7,19921.8
20200.2,19976.6
20110.3,20050.3
20036.6,20140.2
20028.2,20155.9
19969.9,20076.1
19884.7,19997.7
19785.8,19937.5
19677.1,19897.8
19670.9,19896.7
19579.5,19944.4
19479.5,19944.4
19388.2,19896.7
19382,19897.8
19273.3,19937.5
19174.4,19997.7
19089.2,20076.1
19029.5,20157.7
18969.9,20076.1
18884.7,19997.7
18785.8,19937.5
18677.1,19897.8
18670.9,19896.7
18579.5,19944.4
18479.5,19944.4
18388.2,19896.7
18382,19897.8
18273.3,19937.5
18174.4,19997.7
18089.2,20076.1
18030.9,20155.9
18022.5,20140.2
17948.7,20050.3
17858.9,19976.6
17828.7,19960.5
17828.7,19338.1
17855.2,19355.7
17922.2,19383.5
17993.3,19397.6
18065.8,19397.6
18136.9,19383.5
18203.9,19355.7
18244.3,19328.7
21905.6,19328.7
22460.3,19883.5
22413.9,19888.1
22302.7,19921.8
22200.2,19976.6
22110.3,20050.3
22036.6,20140.2
21981.8,20242.7
21948.1,20353.9
21939.5,20440.5
21939.5,20618.5
21948.1,20705.2
21981.8,20816.4
22036.6,20918.9
22110.3,21008.7
22200.2,21082.5
22302.7,21137.3
22413.9,21171
22529.5,21182.4
22645.2,21171
22756.4,21137.3
22858.9,21082.5
22948.7,21008.7
23022.5,20918.9
23029.5,20905.7
23036.6,20918.9
23110.3,21008.7
23200.2,21082.5
23302.7,21137.3
23413.9,21171
23529.5,21182.4
23645.2,21171
23756.4,21137.3
23858.9,21082.5
23948.7,21008.7
24022.5,20918.9
24029.5,20905.7
24036.6,20918.9
24110.3,21008.7
24200.2,21082.5
24302.7,21137.3
24413.9,21171
24529.5,21182.4
24645.2,21171
24756.4,21137.3
24858.9,21082.5
24948.7,21008.7
25022.5,20918.9
25029.5,20905.7
25036.6,20918.9
25110.3,21008.7
25200.2,21082.5
25302.7,21137.3
25413.9,21171
25529.5,21182.4
25645.2,21171
25756.4,21137.3
25858.9,21082.5
25948.7,21008.7
26022.5,20918.9
26029.5,20905.7
26036.6,20918.9
26110.3,21008.7
26200.2,21082.5
26302.7,21137.3
26413.9,21171
26529.5,21182.4
26645.2,21171
26756.4,21137.3
26858.9,21082.5
26948.7,21008.7
27022.5,20918.9
27029.5,20905.7
27036.6,20918.9
27110.3,21008.7
27200.2,21082.5
27302.7,21137.3
27413.9,21171
27529.5,21182.4
27645.2,21171
27756.4,21137.3
27858.9,21082.5
27948.7,21008.7
28022.5,20918.9
28077.3,20816.4
28111,20705.2
28119.5,20618.5
28119.5,20440.5
28111,20353.9
28077.3,20242.7
28022.5,20140.2
27948.7,20050.3
27858.9,19976.6
27756.4,19921.8
27645.2,19888.1
27529.5,19876.7
27413.9,19888.1
27302.7,19921.8
27200.2,19976.6
27110.3,20050.3
27036.6,20140.2
27029.5,20153.4
27022.5,20140.2
26948.7,20050.3
26858.9,19976.6
26756.4,19921.8
26645.2,19888.1
26529.5,19876.7
26413.9,19888.1
26302.7,19921.8
26200.2,19976.6
26110.3,20050.3
26036.6,20140.2
26029.5,20153.4
26022.5,20140.2
25948.7,20050.3
25858.9,19976.6
25756.4,19921.8
25645.2,19888.1
25583.3,19882
22621.7,16920.4
23201.5,16920.4
23229.7,17016.4
23330.3,17064
23438.3,17091.1
23549.4,17096.5
23659.5,17080.2
23764.3,17042.8
23813.6,17016.4
23841.8,16920.4
23805.3,16883.9
24924,16883.9
24928.8,16932.9
24943.1,16980
24966.3,17023.4
24997.6,17061.5
25035.6,17092.7
25079.1,17115.9
25126.2,17130.2
25175.2,17135.1
25417,17133.9
25479.5,17071.4
25479.5,16579.5
25579.5,16579.5
25579.5,17071.4
25642,17133.9
25883.9,17135.1
25932.9,17130.2
25980,17115.9
26023.4,17092.7
26061.5,17061.5
26092.7,17023.4
26115.9,16980
26130.2,16932.9
26135.1,16883.9
26133.9,16642
26071.4,16579.5
25579.5,16579.5
25479.5,16579.5
24987.7,16579.5
24925.2,16642
24924,16883.9
23805.3,16883.9
23521.7,16600.2
23201.5,16920.4
22621.7,16920.4
22258.6,16557.3
22954.6,16557.3
22971,16667.4
23008.4,16772.2
23034.8,16821.5
23130.8,16849.6
23450.9,16529.5
23592.4,16529.5
23912.5,16849.6
24008.5,16821.5
24056.1,16720.9
24083.2,16612.9
24088.7,16501.8
24072.4,16391.7
24034.9,16286.9
24008.5,16237.6
23912.5,16209.4
23592.4,16529.5
23450.9,16529.5
23130.8,16209.4
23034.8,16237.6
22987.2,16338.2
22960.1,16446.1
22954.6,16557.3
22258.6,16557.3
22029.7,16328.3
22020.3,16316.9
21974.8,16279.5
21922.8,16251.8
21866.4,16234.6
21822.4,16230.3
21822.4,16230.3
21807.7,16228.9
21793,16230.3
21009.1,16230.3
20968.4,16169.4
20937.7,16138.7
23201.5,16138.7
23521.7,16458.8
23841.8,16138.7
23813.6,16042.6
23713,15995.1
23605,15968
23493.9,15962.5
23383.8,15978.8
23279,16016.3
23229.7,16042.6
23201.5,16138.7
20937.7,16138.7
20889.7,16090.7
20797.1,16028.9
20694.3,15986.3
20585.2,15964.6
20473.9,15964.6
20364.7,15986.3
20261.9,16028.9
20169.4,16090.7
20090.7,16169.4
20050,16230.3
19461.7,16230.3
19437.8,16194.5
19364.6,16121.3
19278.5,16063.8
19182.8,16024.1
19081.3,16003.9
18977.8,16003.9
18876.2,16024.1
18780.6,16063.8
18694.5,16121.3
18621.3,16194.5
18563.8,16280.6
18524.1,16376.2
18503.9,16477.8
18503.9,16581.3
18524.1,16682.8
18563.8,16778.5
18621.3,16864.6
18694.5,16937.8
18780.6,16995.3
18876.2,17034.9
18977.8,17055.1
19081.3,17055.1
19182.8,17034.9
19278.5,16995.3
19364.6,16937.8
19437.8,16864.6
19461.7,16828.7
20050,16828.7
20090.7,16889.7
20169.4,16968.4
20261.9,17030.2
20364.7,17072.8
20473.9,17094.5
20585.2,17094.5
20694.3,17072.8
20797.1,17030.2
20889.7,16968.4
20968.4,16889.7
21009.1,16828.7
21683.8,16828.7
24800.4,19945.3
24756.4,19921.8
24645.2,19888.1
24529.5,19876.7
24413.9,19888.1
24302.7,19921.8
24200.2,19976.6
24110.3,20050.3
24036.6,20140.2
24029.5,20153.4
24022.5,20140.2
23948.7,20050.3
23858.9,19976.6
23756.4,19921.8
23645.2,19888.1
23529.5,19876.7
23413.9,19888.1
23335.1,19912
22251.5,18828.3
22242.1,18816.9
22196.6,18779.5
22144.6,18751.8
22088.2,18734.6
22044.2,18730.3
22044.2,18730.3
22029.5,18728.9
22014.8,18730.3
18244.3,18730.3
18203.9,18703.3
18136.9,18675.6
18065.8,18661.4
17993.3,18661.4
17922.2,18675.6
17855.2,18703.3
17828.7,18721
17828.7,17461.7
17864.6,17437.8
17937.8,17364.6
17995.3,17278.5
18034.9,17182.8
18055.1,17081.3
18055.1,16977.8
18034.9,16876.2
17995.3,16780.6
17937.8,16694.5
17864.6,16621.3
17828.7,16597.3
17828.7,15153.5
18935.5,14046.7
18977.8,14055.1
19081.3,14055.1
19182.8,14034.9
19278.5,13995.3
19364.6,13937.8
19437.8,13864.6
19495.3,13778.5
19534.9,13682.8
19555.1,13581.3
19555.1,13477.8
19534.9,13376.2
19495.3,13280.6
19437.8,13194.5
19364.6,13121.3
19278.5,13063.8
19182.8,13024.1
19081.3,13003.9
18977.8,13003.9
18935.5,13012.3
16119.6,10196.5
16110.2,10185
16064.7,10147.6
16012.7,10119.9
15956.3,10102.8
15912.3,10098.4
15912.3,10098.4
15897.6,10097
15882.9,10098.4
10845.6,10098.4
10821.6,10062.6
10748.4,9989.39
10662.3,9931.87
10566.7,9892.25
10465.2,9872.05
10361.6,9872.05
10260.1,9892.25
10164.4,9931.87
10078.3,9989.39
10005.1,10062.6
9947.61,10148.7
9907.99,10244.3
9887.8,10345.9
7938.98,10345.9
7930.57,10303.6
9128.46,9105.71
9887.8,9105.71
9887.8,9209.25
9907.99,9310.79
9947.61,9406.44
10005.1,9492.53
10078.3,9565.73
10164.4,9623.25
10260.1,9662.87
10361.6,9683.07
10465.2,9683.07
10566.7,9662.87
10662.3,9623.25
10748.4,9565.73
10821.6,9492.53
10845.6,9456.69
16886.9,9456.69
16901.6,9458.14
16916.3,9456.69
16916.3,9456.69
16960.2,9452.36
17016.6,9435.26
17068.6,9407.47
17114.2,9370.08
17123.5,9358.66
18230.7,8251.5
18242.1,8242.13
18279.5,8196.57
18307.3,8144.59
18324.4,8088.18
18328.7,8044.23
18328.7,8044.22
18330.2,8029.53
18328.7,8014.83
18328.7,7961.72
18364.6,7937.78
18437.8,7864.57
18495.3,7778.49
18534.9,7682.84
18555.1,7581.29
18555.1,7477.76
18534.9,7376.22
18495.3,7280.57
18437.8,7194.48
18364.6,7121.28
18278.5,7063.76
18182.8,7024.14
18081.3,7003.94
17977.8,7003.94
17876.2,7024.14
17780.6,7063.76
17694.5,7121.28
17621.3,7194.48
17563.8,7280.57
17524.1,7376.22
17503.9,7477.76
17503.9,7581.29
17524.1,7682.84
17563.8,7778.49
17621.3,7864.57
17694.5,7937.78
17696.7,7939.24
16777.6,8858.27
10845.6,8858.27
10821.6,8822.44
10748.4,8749.23
10662.3,8691.71
10566.7,8652.09
10465.2,8631.89
10361.6,8631.89
10260.1,8652.09
10164.4,8691.71
10078.3,8749.23
10005.1,8822.44
9947.61,8908.52
9907.99,9004.17
9887.8,9105.71
9128.46,9105.71
9905.44,8328.74
11514.8,8328.74
11529.5,8330.19
11544.2,8328.74
11588.2,8324.41
11644.6,8307.3
11696.6,8279.52
11742.1,8242.13
11779.5,8196.57
11807.3,8144.59
11824.4,8088.18
11830.2,8029.53
11828.7,8014.83
11828.7,7153.47
12591.6,6390.59
12669.4,6468.36
12760.9,6529.53
12669.4,6590.69
12590.7,6669.39
12528.9,6761.92
12486.3,6864.74
12464.6,6973.88
12464.6,7085.17
12486.3,7194.32
12528.9,7297.14
12590.7,7389.67
12669.4,7468.36
12761.9,7530.19
12864.7,7572.78
12973.9,7594.49
13085.2,7594.49
13194.3,7572.78
13297.1,7530.19
13389.7,7468.36
13468.4,7389.67
13530.2,7297.14
13572.8,7194.32
13594.5,7085.17
13594.5,6973.88
13572.8,6864.74
13530.2,6761.92
13468.4,6669.39
13389.7,6590.69
13298.1,6529.53
13389.7,6468.36
13468.4,6389.67
13530.2,6297.14
13572.8,6194.32
13594.5,6085.17
13594.5,5977.76
20003.9,5977.76
20003.9,6081.29
20024.1,6182.84
20063.8,6278.49
20121.3,6364.57
20194.5,6437.78
20280.6,6495.3
20376.2,6534.92
20477.8,6555.12
20581.3,6555.12
20682.8,6534.92
20778.5,6495.3
20864.6,6437.78
20937.8,6364.57
20995.3,6278.49
21034.9,6182.84
21055.1,6081.29
21055.1,5977.76
21034.9,5876.22
20995.3,5780.57
20937.8,5694.48
20864.6,5621.28
20778.5,5563.76
20682.8,5524.14
20581.3,5503.94
20477.8,5503.94
20376.2,5524.14
20280.6,5563.76
20194.5,5621.28
20121.3,5694.48
20063.8,5780.57
20024.1,5876.22
20003.9,5977.76
13594.5,5977.76
13594.5,5973.88
13572.8,5864.74
13530.2,5761.92
13468.4,5669.39
13389.7,5590.69
13298.1,5529.53
13389.7,5468.36
13468.4,5389.67
13530.2,5297.14
13572.8,5194.32
13594.5,5085.17
13594.5,4973.88
13572.8,4864.74
13530.2,4761.92
13468.4,4669.39
13389.7,4590.69
13297.1,4528.87
13194.3,4486.28
13151.5,4477.76
17503.9,4477.76
17503.9,4581.29
17524.1,4682.84
17563.8,4778.49
17621.3,4864.57
17694.5,4937.78
17780.6,4995.3
17876.2,5034.92
17977.8,5055.12
18081.3,5055.12
18182.8,5034.92
18278.5,4995.3
18364.6,4937.78
18437.8,4864.57
18495.3,4778.49
18534.9,4682.84
18555.1,4581.29
18555.1,4477.76
18534.9,4376.22
18495.3,4280.57
18437.8,4194.48
18383.1,4139.78
21228.9,4139.78
21230.3,4154.48
21230.3,11926.2
21228.9,11940.9
21230.3,11955.6
21234.6,11999.6
21235.4,12002
21251.8,12056
21279.5,12108
21302.7,12136.2
21316.9,12153.5
21328.3,12162.9
22230.3,13064.9
22230.3,14514.8
22228.9,14529.5
22234.6,14588.2
22251.8,14644.6
22279.5,14696.6
22285.8,14704.2
22316.9,14742.1
22328.3,14751.5
23307.6,15730.7
23316.9,15742.1
23328.3,15751.5
23328.3,15751.5
23356.2,15774.3
23362.5,15779.5
23414.5,15807.3
23470.9,15824.4
23514.8,15828.7
23514.8,15828.7
23529.5,15830.2
23544.2,15828.7
25002.6,15828.7
25060.1,15914.8
25086.3,15940.9
25079.1,15943.1
25035.6,15966.3
24997.6,15997.6
24966.3,16035.6
24943.1,16079.1
24928.8,16126.2
24924,16175.2
24925.2,16417
24987.7,16479.5
25479.5,16479.5
25479.5,16471.7
25579.5,16471.7
25579.5,16479.5
26071.4,16479.5
26133.9,16417
26135.1,16175.2
26130.2,16126.2
26115.9,16079.1
26092.7,16035.6
26061.5,15997.6
26023.4,15966.3
25980,15943.1
25972.8,15940.9
25998.9,15914.8
26065.1,15815.8
26110.6,15705.8
26133.9,15589
26133.9,15470
26110.6,15353.3
26065.1,15243.3
25998.9,15144.3
25914.8,15060.1
25815.8,14994
25705.8,14948.4
25589,14925.2
25470,14925.2
25353.3,14948.4
25243.3,14994
25144.3,15060.1
25060.1,15144.3
25002.6,15230.3
23653.5,15230.3
22828.7,14405.6
22828.7,12955.6
22830.2,12940.9
22830,12939
23687.8,12939
23687.8,14120.1
23692.6,14169.1
23706.9,14216.2
23730.1,14259.6
23761.3,14297.7
23799.4,14329
23842.8,14352.2
23890,14366.5
23939,14371.3
25120.1,14371.3
25169.1,14366.5
25216.2,14352.2
25259.6,14329
25297.7,14297.7
25329,14259.6
25352.2,14216.2
25366.5,14169.1
25371.3,14120.1
25371.3,12939
25366.5,12890
25352.2,12842.8
25329,12799.4
25297.7,12761.3
25259.6,12730.1
25216.2,12706.9
25169.1,12692.6
25120.1,12687.8
24997.4,12687.8
25046.1,12589.2
24529.5,12072.7
24013,12589.2
24061.7,12687.8
23939,12687.8
23890,12692.6
23842.8,12706.9
23799.4,12730.1
23761.3,12761.3
23730.1,12799.4
23706.9,12842.8
23692.6,12890
23687.8,12939
22830,12939
22828.7,12926.3
22828.7,12926.2
22824.4,12882.3
22807.3,12825.9
22779.5,12773.9
22774.3,12767.6
22751.5,12739.8
22751.5,12739.8
22742.1,12728.3
22730.7,12719
22030.6,12018.8
23685.1,12018.8
23704.6,12183.2
23755.8,12340.7
23818,12457.1
23942.3,12518.5
24458.8,12002
24600.2,12002
25116.8,12518.5
25241,12457.1
25316.2,12309.5
25361,12150.2
25374,11985.1
25354.5,11820.7
25303.2,11663.2
25241,11546.8
25116.8,11485.4
24600.2,12002
24458.8,12002
23942.3,11485.4
23818,11546.8
23742.9,11694.4
23698,11853.8
23685.1,12018.8
22030.6,12018.8
21828.7,11817
21828.7,11414.7
24013,11414.7
24529.5,11931.3
25046.1,11414.7
24984.7,11290.5
24837.1,11215.3
24677.7,11170.5
24512.7,11157.5
24348.2,11177
24190.8,11228.3
24074.4,11290.5
24013,11414.7
21828.7,11414.7
21828.7,8938.98
23687.8,8938.98
23687.8,10120.1
23692.6,10169.1
23706.9,10216.2
23730.1,10259.6
23761.3,10297.7
23799.4,10329
23842.8,10352.2
23890,10366.5
23939,10371.3
25120.1,10371.3
25169.1,10366.5
25216.2,10352.2
25259.6,10329
25297.7,10297.7
25329,10259.6
25352.2,10216.2
25366.5,10169.1
25371.3,10120.1
25371.3,8938.98
25366.5,8889.97
25352.2,8842.84
25329,8799.41
25297.7,8761.34
25259.6,8730.1
25216.2,8706.89
25169.1,8692.59
25120.1,8687.77
24997.4,8687.77
25046.1,8589.23
24529.5,8072.68
24013,8589.23
24061.7,8687.77
23939,8687.77
23890,8692.59
23842.8,8706.89
23799.4,8730.1
23761.3,8761.34
23730.1,8799.41
23706.9,8842.84
23692.6,8889.97
23687.8,8938.98
21828.7,8938.98
21828.7,8018.83
23685.1,8018.83
23704.6,8183.25
23755.8,8340.7
23818,8457.1
23942.3,8518.52
24458.8,8001.97
24600.2,8001.97
25116.8,8518.52
25241,8457.1
25316.2,8309.55
25361,8150.18
25374,7985.11
25354.5,7820.69
25303.2,7663.24
25241,7546.84
25116.8,7485.41
24600.2,8001.97
24458.8,8001.97
23942.3,7485.41
23818,7546.84
23742.9,7694.39
23698,7853.76
23685.1,8018.83
21828.7,8018.83
21828.7,7414.7
24013,7414.7
24529.5,7931.26
25046.1,7414.7
24984.7,7290.47
24837.1,7215.35
24677.7,7170.46
24512.7,7157.52
24348.2,7177.03
24190.8,7228.25
24074.4,7290.47
24013,7414.7
21828.7,7414.7
21828.7,5977.76
23003.9,5977.76
23003.9,6081.29
23024.1,6182.84
23063.8,6278.49
23121.3,6364.57
23194.5,6437.78
23280.6,6495.3
23376.2,6534.92
23477.8,6555.12
23581.3,6555.12
23682.8,6534.92
23778.5,6495.3
23864.6,6437.78
23937.8,6364.57
23995.3,6278.49
24034.9,6182.84
24055.1,6081.29
24055.1,5977.76
24034.9,5876.22
23995.3,5780.57
23937.8,5694.48
23864.6,5621.28
23778.5,5563.76
23682.8,5524.14
23581.3,5503.94
23477.8,5503.94
23376.2,5524.14
23280.6,5563.76
23194.5,5621.28
23121.3,5694.48
23063.8,5780.57
23024.1,5876.22
23003.9,5977.76
21828.7,5977.76
21828.7,5383.86
24924,5383.86
24928.8,5432.87
24943.1,5479.99
24966.3,5523.42
24997.6,5561.49
25035.6,5592.73
25079.1,5615.95
25086.3,5618.13
25060.1,5644.29
24994,5743.27
24948.4,5853.25
24925.2,5970.01
24925.2,6089.05
24948.4,6205.8
24994,6315.79
25060.1,6414.77
25144.3,6498.94
25243.3,6565.08
25353.3,6610.63
25470,6633.86
25589,6633.86
25705.8,6610.63
25815.8,6565.08
25914.8,6498.94
25998.9,6414.77
26065.1,6315.79
26110.6,6205.8
26133.9,6089.05
26133.9,5970.01
26110.6,5853.25
26065.1,5743.27
25998.9,5644.29
25972.8,5618.13
25980,5615.95
26023.4,5592.73
26061.5,5561.49
26092.7,5523.42
26115.9,5479.99
26130.2,5432.87
26135.1,5383.86
26133.9,5142.03
26071.4,5079.53
25579.5,5079.53
25579.5,5087.4
25479.5,5087.4
25479.5,5079.53
24987.7,5079.53
24925.2,5142.03
24924,5383.86
21828.7,5383.86
21828.7,4675.2
24924,4675.2
24925.2,4917.03
24987.7,4979.53
25479.5,4979.53
25479.5,4487.7
25579.5,4487.7
25579.5,4979.53
26071.4,4979.53
26133.9,4917.03
26135.1,4675.2
26130.2,4626.19
26115.9,4579.06
26092.7,4535.63
26061.5,4497.57
26023.4,4466.32
25980,4443.11
25932.9,4428.81
25883.9,4423.99
25642,4425.2
25579.5,4487.7
25479.5,4487.7
25417,4425.2
25175.2,4423.99
25126.2,4428.81
25079.1,4443.11
25035.6,4466.32
24997.6,4497.57
24966.3,4535.63
24943.1,4579.06
24928.8,4626.19
24924,4675.2
21828.7,4675.2
21828.7,4263.72
22174.6,3917.88
22194.5,3937.78
22280.6,3995.3
22376.2,4034.92
22477.8,4055.12
22581.3,4055.12
22682.8,4034.92
22778.5,3995.3
22864.6,3937.78
22937.8,3864.57
22995.3,3778.49
23034.9,3682.84
23055.1,3581.29
23055.1,3477.76
23034.9,3376.22
22995.3,3280.57
22937.8,3194.48
22864.6,3121.28
22778.5,3063.76
22682.8,3024.14
22581.3,3003.94
22477.8,3003.94
22376.2,3024.14
22280.6,3063.76
22194.5,3121.28
22121.3,3194.48
22095.4,3233.24
22081.1,3234.64
22024.7,3251.75
21972.7,3279.54
21939.8,3306.56
21927.2,3316.93
21917.8,3328.35
21328.3,3917.81
21316.9,3927.19
21295.2,3953.63
21279.5,3972.75
21267.5,3995.3
21251.8,4024.73
21234.6,4081.13
21230.3,4125.09
21230.3,4125.09
21228.9,4139.78
18383.1,4139.78
18364.6,4121.28
18278.5,4063.76
18182.8,4024.14
18081.3,4003.94
17977.8,4003.94
17876.2,4024.14
17780.6,4063.76
17694.5,4121.28
17621.3,4194.48
17563.8,4280.57
17524.1,4376.22
17503.9,4477.76
13151.5,4477.76
13085.2,4464.57
12973.9,4464.57
12864.7,4486.28
12761.9,4528.87
12669.4,4590.69
12590.7,4669.39
12528.9,4761.92
12486.3,4864.74
12464.6,4973.88
12464.6,5085.17
12486.3,5194.32
12528.9,5297.14
12590.7,5389.67
12669.4,5468.36
12760.9,5529.53
12669.4,5590.69
12590.7,5669.39
12550,5730.32
12544.2,5730.32
12529.5,5728.87
12514.8,5730.32
12514.8,5730.32
12470.9,5734.64
12414.5,5751.75
12362.5,5779.54
12362.5,5779.54
12362.5,5779.54
12328.3,5807.56
12328.3,5807.56
12316.9,5816.93
12307.6,5828.34
11328.3,6807.56
11316.9,6816.93
11307.6,6828.35
11307.6,6828.35
11279.5,6862.49
11251.8,6914.47
11239.8,6953.76
11234.6,6970.87
11233.8,6979.53
11228.9,7029.53
11230.3,7044.23
11230.3,7730.32
9796.19,7730.32
9781.5,7728.87
9766.8,7730.32
9766.8,7730.32
9722.84,7734.64
9666.44,7751.75
9614.46,7779.54
9581.53,7806.56
9568.9,7816.93
9559.53,7828.35
7507.42,9880.46
7465.15,9872.05
7361.62,9872.05
7260.08,9892.25
7164.43,9931.87
7078.34,9989.39
7005.13,10062.6
6947.61,10148.7
6907.99,10244.3
6887.8,10345.9
2809.06,10345.9
2809.06,9520.19
7121.39,9520.19
7144.8,9612.22
7238.68,9655.88
7339.27,9680.39
7442.71,9684.8
7545.02,9668.95
7642.27,9633.44
7681.97,9612.22
7705.38,9520.19
7413.39,9228.19
7121.39,9520.19
2809.06,9520.19
2809.06,9186.8
6886.07,9186.8
6901.92,9289.11
6937.43,9386.37
6958.65,9426.06
7050.68,9449.47
7342.68,9157.48
7484.1,9157.48
7776.09,9449.47
7868.13,9426.06
7911.79,9332.19
7936.29,9231.6
7940.71,9128.16
7924.85,9025.85
7889.35,8928.6
7868.13,8888.9
7776.09,8865.49
7484.1,9157.48
7342.68,9157.48
7050.68,8865.49
6958.65,8888.9
6914.99,8982.77
6890.48,9083.36
6886.07,9186.8
2809.06,9186.8
2809.06,8794.78
7121.39,8794.78
7413.39,9086.77
7705.38,8794.78
7681.97,8702.74
7588.09,8659.08
7487.5,8634.57
7384.07,8630.16
7281.76,8646.01
7184.5,8681.52
7144.8,8702.74
7121.39,8794.78
2809.06,8794.78
2809.06,7182.39
6088.72,7182.39
6102.23,7237.2
6154.89,7356.51
6229.81,7463.26
6324.12,7553.33
6434.19,7623.28
6555.79,7670.41
6684.25,7692.91
6979.53,7692.91
6979.53,7079.53
7079.53,7079.53
7079.53,7692.91
7374.8,7692.91
7503.26,7670.41
7624.86,7623.28
7734.93,7553.33
7829.24,7463.26
7904.17,7356.51
7956.83,7237.2
7970.34,7182.39
7923.61,7079.53
7079.53,7079.53
6979.53,7079.53
6135.45,7079.53
6088.72,7182.39
2809.06,7182.39
2809.06,6876.66
6088.72,6876.66
6135.45,6979.53
6979.53,6979.53
6979.53,6366.14
7079.53,6366.14
7079.53,6979.53
7923.61,6979.53
7926.17,6973.88
9464.57,6973.88
9464.57,7085.17
9486.28,7194.32
9528.87,7297.14
9590.69,7389.67
9669.39,7468.36
9761.92,7530.19
9864.74,7572.78
9973.88,7594.49
10085.2,7594.49
10194.3,7572.78
10297.1,7530.19
10389.7,7468.36
10468.4,7389.67
10530.2,7297.14
10572.8,7194.32
10594.5,7085.17
10594.5,6973.88
10572.8,6864.74
10530.2,6761.92
10468.4,6669.39
10389.7,6590.69
10297.1,6528.87
10293,6527.14
10366.2,6483.22
10448.2,6408.82
10514.2,6319.85
10561.5,6219.72
10577.5,6166.94
10529.5,6079.53
10079.5,6079.53
10079.5,6087.4
9979.53,6087.4
9979.53,6079.53
9529.56,6079.53
9481.53,6166.94
9497.54,6219.72
9544.87,6319.85
9610.82,6408.82
9692.86,6483.22
9766.09,6527.14
9761.92,6528.87
9669.39,6590.69
9590.69,6669.39
9528.87,6761.92
9486.28,6864.74
9464.57,6973.88
7926.17,6973.88
7970.34,6876.66
7956.83,6821.85
7904.17,6702.54
7829.24,6595.8
7734.93,6505.72
7624.86,6435.77
7503.26,6388.64
7374.8,6366.14
7079.53,6366.14
6979.53,6366.14
6684.25,6366.14
6555.79,6388.64
6434.19,6435.77
6324.12,6505.72
6229.81,6595.8
6154.89,6702.54
6102.23,6821.85
6088.72,6876.66
2809.06,6876.66
2809.06,4714.57
9463.36,4714.57
9463.36,5344.49
9468.18,5393.5
9482.48,5440.62
9505.69,5484.05
9536.94,5522.12
9575,5553.36
9618.43,5576.58
9665.56,5590.87
9675.23,5591.82
9610.82,5650.23
9544.87,5739.21
9497.54,5839.34
9481.53,5892.11
9529.56,5979.53
9979.53,5979.53
9979.53,5971.65
10079.5,5971.65
10079.5,5979.53
10529.5,5979.53
10577.5,5892.11
10561.5,5839.34
10514.2,5739.21
10448.2,5650.23
10383.8,5591.82
10393.5,5590.87
10440.6,5576.58
10484.1,5553.36
10522.1,5522.12
10553.4,5484.05
10576.6,5440.62
10590.9,5393.5
10595.7,5344.49
10595.7,4714.57
10590.9,4665.56
10576.6,4618.43
10553.4,4575
10522.1,4536.94
10484.1,4505.69
10440.6,4482.48
10393.5,4468.18
10344.5,4463.36
9714.57,4463.36
9665.56,4468.18
9618.43,4482.48
9575,4505.69
9536.94,4536.94
9505.69,4575
9482.48,4618.43
9468.18,4665.56
9463.36,4714.57
2809.06,4714.57
2809.06,3714.57
6069.66,3714.57
6069.66,4344.49
6076.38,4412.7
6096.27,4478.29
6128.58,4538.74
6172.06,4591.72
6225.05,4635.2
6285.49,4667.51
6351.08,4687.41
6419.29,4694.12
7639.76,4694.12
7707.97,4687.41
7773.56,4667.51
7834.01,4635.2
7886.99,4591.72
7930.47,4538.74
7962.78,4478.29
7982.68,4412.7
7989.4,4344.49
7989.4,3714.57
7982.68,3646.36
7962.78,3580.77
7930.47,3520.32
7886.99,3467.34
7834.01,3423.86
7773.56,3391.55
7707.97,3371.65
7639.76,3364.93
6419.29,3364.93
6351.08,3371.65
6285.49,3391.55
6225.05,3423.86
6172.06,3467.34
6128.58,3520.32
6096.27,3580.77
6076.38,3646.36
6069.66,3714.57
2809.06,3714.57
2809.06,809.056
7765.08,809.056
Z" /> 
</g>
</g>
</g>
<g style="fill:#FFFFFF; fill-opacity:1.0; 
stroke:#FFFFFF; stroke-width:100; stroke-opacity:1; 
stroke-linecap:round; stroke-linejoin:round;">
</g>
<g style="fill:#FFFFFF; fill-opacity:1.0; 
stroke:#FFFFFF; stroke-width:0; stroke-opacity:1; 
stroke-linecap:round; stroke-linejoin:round;">
<circle cx="18029.5" cy="19029.5" r="78.7402" /> 
</g>
<g style="fill:#FFFFFF; fill-opacity:1.0; 
stroke:#FFFFFF; stroke-width:39.3701; stroke-opacity:1; 
stroke-linecap:round; stroke-linejoin:round;">
</g>
<g style="fill:#FFFFFF; fill-opacity:1.0; 
stroke:#FFFFFF; stroke-width:0; stroke-opacity:1; 
stroke-linecap:round; stroke-linejoin:round;">
<circle cx="12529.5" cy="10643.7" r="78.7402" /> 
</g>
<g style="fill:#FFFFFF; fill-opacity:1.0; 
stroke:#FFFFFF; stroke-width:39.3701; stroke-opacity:1; 
stroke-linecap:round; stroke-linejoin:round;">
</g>
<g style="fill:#FFFFFF; fill-opacity:1.0; 
stroke:#FFFFFF; stroke-width:0; stroke-opacity:1; 
stroke-linecap:round; stroke-linejoin:round;">
<circle cx="13529.5" cy="20529.5" r="200" /> 
</g>
<g style="fill:#FFFFFF; fill-opacity:1.0; 
stroke:#FFFFFF; stroke-width:39.3701; stroke-opacity:1; 
stroke-linecap:round; stroke-linejoin:round;">
</g>
<g style="fill:#FFFFFF; fill-opacity:1.0; 
stroke:#FFFFFF; stroke-width:0; stroke-opacity:1; 
stroke-linecap:round; stroke-linejoin:round;">
<circle cx="14529.5" cy="20529.5" r="200" /> 
</g>
<g style="fill:#FFFFFF; fill-opacity:1.0; 
stroke:#FFFFFF; stroke-width:39.3701; stroke-opacity:1; 
stroke-linecap:round; stroke-linejoin:round;">
</g>
<g style="fill:#FFFFFF; fill-opacity:1.0; 
stroke:#FFFFFF; stroke-width:0; stroke-opacity:1; 
stroke-linecap:round; stroke-linejoin:round;">
<circle cx="15529.5" cy="20529.5" r="200" /> 
</g>
<g style="fill:#FFFFFF; fill-opacity:1.0; 
stroke:#FFFFFF; stroke-width:39.3701; stroke-opacity:1; 
stroke-linecap:round; stroke-linejoin:round;">
</g>
<g style="fill:#FFFFFF; fill-opacity:1.0; 
stroke:#FFFFFF; stroke-width:0; stroke-opacity:1; 
stroke-linecap:round; stroke-linejoin:round;">
<circle cx="16529.5" cy="20529.5" r="200" /> 
</g>
<g style="fill:#FFFFFF; fill-opacity:1.0; 
stroke:#FFFFFF; stroke-width:39.3701; stroke-opacity:1; 
stroke-linecap:round; stroke-linejoin:round;">
</g>
<g style="fill:#FFFFFF; fill-opacity:1.0; 
stroke:#FFFFFF; stroke-width:0; stroke-opacity:1; 
stroke-linecap:round; stroke-linejoin:round;">
<circle cx="17529.5" cy="20529.5" r="200" /> 
</g>
<g style="fill:#FFFFFF; fill-opacity:1.0; 
stroke:#FFFFFF; stroke-width:39.3701; stroke-opacity:1; 
stroke-linecap:round; stroke-linejoin:round;">
</g>
<g style="fill:#FFFFFF; fill-opacity:1.0; 
stroke:#FFFFFF; stroke-width:0; stroke-opacity:1; 
stroke-linecap:round; stroke-linejoin:round;">
<circle cx="18529.5" cy="20529.5" r="200" /> 
</g>
<g style="fill:#FFFFFF; fill-opacity:1.0; 
stroke:#FFFFFF; stroke-width:39.3701; stroke-opacity:1; 
stroke-linecap:round; stroke-linejoin:round;">
</g>
<g style="fill:#FFFFFF; fill-opacity:1.0; 
stroke:#FFFFFF; stroke-width:0; stroke-opacity:1; 
stroke-linecap:round; stroke-linejoin:round;">
<circle cx="19529.5" cy="20529.5" r="200" /> 
</g>
<g style="fill:#FFFFFF; fill-opacity:1.0; 
stroke:#FFFFFF; stroke-width:39.3701; stroke-opacity:1; 
stroke-linecap:round; stroke-linejoin:round;">
</g>
<g style="fill:#FFFFFF; fill-opacity:1.0; 
stroke:#FFFFFF; stroke-width:0; stroke-opacity:1; 
stroke-linecap:round; stroke-linejoin:round;">
<circle cx="20529.5" cy="20529.5" r="200" /> 
</g>
<g style="fill:#FFFFFF; fill-opacity:1.0; 
stroke:#FFFFFF; stroke-width:39.3701; stroke-opacity:1; 
stroke-linecap:round; stroke-linejoin:round;">
</g>
<g style="fill:#FFFFFF; fill-opacity:1.0; 
stroke:#FFFFFF; stroke-width:0; stroke-opacity:1; 
stroke-linecap:round; stroke-linejoin:round;">
<circle cx="22529.5" cy="20529.5" r="200" /> 
</g>
<g style="fill:#FFFFFF; fill-opacity:1.0; 
stroke:#FFFFFF; stroke-width:39.3701; stroke-opacity:1; 
stroke-linecap:round; stroke-linejoin:round;">
</g>
<g style="fill:#FFFFFF; fill-opacity:1.0; 
stroke:#FFFFFF; stroke-width:0; stroke-opacity:1; 
stroke-linecap:round; stroke-linejoin:round;">
<circle cx="23529.5" cy="20529.5" r="200" /> 
</g>
<g style="fill:#FFFFFF; fill-opacity:1.0; 
stroke:#FFFFFF; stroke-width:39.3701; stroke-opacity:1; 
stroke-linecap:round; stroke-linejoin:round;">
</g>
<g style="fill:#FFFFFF; fill-opacity:1.0; 
stroke:#FFFFFF; stroke-width:0; stroke-opacity:1; 
stroke-linecap:round; stroke-linejoin:round;">
<circle cx="24529.5" cy="20529.5" r="200" /> 
</g>
<g style="fill:#FFFFFF; fill-opacity:1.0; 
stroke:#FFFFFF; stroke-width:39.3701; stroke-opacity:1; 
stroke-linecap:round; stroke-linejoin:round;">
</g>
<g style="fill:#FFFFFF; fill-opacity:1.0; 
stroke:#FFFFFF; stroke-width:0; stroke-opacity:1; 
stroke-linecap:round; stroke-linejoin:round;">
<circle cx="25529.5" cy="20529.5" r="200" /> 
</g>
<g style="fill:#FFFFFF; fill-opacity:1.0; 
stroke:#FFFFFF; stroke-width:39.3701; stroke-opacity:1; 
stroke-linecap:round; stroke-linejoin:round;">
</g>
<g style="fill:#FFFFFF; fill-opacity:1.0; 
stroke:#FFFFFF; stroke-width:0; stroke-opacity:1; 
stroke-linecap:round; stroke-linejoin:round;">
<circle cx="26529.5" cy="20529.5" r="200" /> 
</g>
<g style="fill:#FFFFFF; fill-opacity:1.0; 
stroke:#FFFFFF; stroke-width:39.3701; stroke-opacity:1; 
stroke-linecap:round; stroke-linejoin:round;">
</g>
<g style="fill:#FFFFFF; fill-opacity:1.0; 
stroke:#FFFFFF; stroke-width:0; stroke-opacity:1; 
stroke-linecap:round; stroke-linejoin:round;">
<circle cx="27529.5" cy="20529.5" r="200" /> 
</g>
<g style="fill:#FFFFFF; fill-opacity:1.0; 
stroke:#FFFFFF; stroke-width:39.3701; stroke-opacity:1; 
stroke-linecap:round; stroke-linejoin:round;">
</g>
<g style="fill:#FFFFFF; fill-opacity:1.0; 
stroke:#FFFFFF; stroke-width:0; stroke-opacity:1; 
stroke-linecap:round; stroke-linejoin:round;">
<circle cx="9929.53" cy="1529.53" r="200" /> 
</g>
<g style="fill:#FFFFFF; fill-opacity:1.0; 
stroke:#FFFFFF; stroke-width:39.3701; stroke-opacity:1; 
stroke-linecap:round; stroke-linejoin:round;">
</g>
<g style="fill:#FFFFFF; fill-opacity:1.0; 
stroke:#FFFFFF; stroke-width:0; stroke-opacity:1; 
stroke-linecap:round; stroke-linejoin:round;">
<circle cx="10929.5" cy="1529.53" r="200" /> 
</g>
<g style="fill:#FFFFFF; fill-opacity:1.0; 
stroke:#FFFFFF; stroke-width:39.3701; stroke-opacity:1; 
stroke-linecap:round; stroke-linejoin:round;">
</g>
<g style="fill:#FFFFFF; fill-opacity:1.0; 
stroke:#FFFFFF; stroke-width:0; stroke-opacity:1; 
stroke-linecap:round; stroke-linejoin:round;">
<circle cx="11929.5" cy="1529.53" r="200" /> 
</g>
<g style="fill:#FFFFFF; fill-opacity:1.0; 
stroke:#FFFFFF; stroke-width:39.3701; stroke-opacity:1; 
stroke-linecap:round; stroke-linejoin:round;">
</g>
<g style="fill:#FFFFFF; fill-opacity:1.0; 
stroke:#FFFFFF; stroke-width:0; stroke-opacity:1; 
stroke-linecap:round; stroke-linejoin:round;">
<circle cx="12929.5" cy="1529.53" r="200" /> 
</g>
<g style="fill:#FFFFFF; fill-opacity:1.0; 
stroke:#FFFFFF; stroke-width:39.3701; stroke-opacity:1; 
stroke-linecap:round; stroke-linejoin:round;">
</g>
<g style="fill:#FFFFFF; fill-opacity:1.0; 
stroke:#FFFFFF; stroke-width:0; stroke-opacity:1; 
stroke-linecap:round; stroke-linejoin:round;">
<circle cx="13929.5" cy="1529.53" r="200" /> 
</g>
<g style="fill:#FFFFFF; fill-opacity:1.0; 
stroke:#FFFFFF; stroke-width:39.3701; stroke-opacity:1; 
stroke-linecap:round; stroke-linejoin:round;">
</g>
<g style="fill:#FFFFFF; fill-opacity:1.0; 
stroke:#FFFFFF; stroke-width:0; stroke-opacity:1; 
stroke-linecap:round; stroke-linejoin:round;">
<circle cx="14929.5" cy="1529.53" r="200" /> 
</g>
<g style="fill:#FFFFFF; fill-opacity:1.0; 
stroke:#FFFFFF; stroke-width:39.3701; stroke-opacity:1; 
stroke-linecap:round; stroke-linejoin:round;">
</g>
<g style="fill:#FFFFFF; fill-opacity:1.0; 
stroke:#FFFFFF; stroke-width:0; stroke-opacity:1; 
stroke-linecap:round; stroke-linejoin:round;">
<circle cx="15929.5" cy="1529.53" r="200" /> 
</g>
<g style="fill:#FFFFFF; fill-opacity:1.0; 
stroke:#FFFFFF; stroke-width:39.3701; stroke-opacity:1; 
stroke-linecap:round; stroke-linejoin:round;">
</g>
<g style="fill:#FFFFFF; fill-opacity:1.0; 
stroke:#FFFFFF; stroke-width:0; stroke-opacity:1; 
stroke-linecap:round; stroke-linejoin:round;">
<circle cx="16929.5" cy="1529.53" r="200" /> 
</g>
<g style="fill:#FFFFFF; fill-opacity:1.0; 
stroke:#FFFFFF; stroke-width:39.3701; stroke-opacity:1; 
stroke-linecap:round; stroke-linejoin:round;">
</g>
<g style="fill:#FFFFFF; fill-opacity:1.0; 
stroke:#FFFFFF; stroke-width:0; stroke-opacity:1; 
stroke-linecap:round; stroke-linejoin:round;">
<circle cx="17929.5" cy="1529.53" r="200" /> 
</g>
<g style="fill:#FFFFFF; fill-opacity:1.0; 
stroke:#FFFFFF; stroke-width:39.3701; stroke-opacity:1; 
stroke-linecap:round; stroke-linejoin:round;">
</g>
<g style="fill:#FFFFFF; fill-opacity:1.0; 
stroke:#FFFFFF; stroke-width:0; stroke-opacity:1; 
stroke-linecap:round; stroke-linejoin:round;">
<circle cx="18929.5" cy="1529.53" r="200" /> 
</g>
<g style="fill:#FFFFFF; fill-opacity:1.0; 
stroke:#FFFFFF; stroke-width:39.3701; stroke-opacity:1; 
stroke-linecap:round; stroke-linejoin:round;">
</g>
<g style="fill:#FFFFFF; fill-opacity:1.0; 
stroke:#FFFFFF; stroke-width:0; stroke-opacity:1; 
stroke-linecap:round; stroke-linejoin:round;">
<circle cx="20529.5" cy="1529.53" r="200" /> 
</g>
<g style="fill:#FFFFFF; fill-opacity:1.0; 
stroke:#FFFFFF; stroke-width:39.3701; stroke-opacity:1; 
stroke-linecap:round; stroke-linejoin:round;">
</g>
<g style="fill:#FFFFFF; fill-opacity:1.0; 
stroke:#FFFFFF; stroke-width:0; stroke-opacity:1; 
stroke-linecap:round; stroke-linejoin:round;">
<circle cx="21529.5" cy="1529.53" r="200" /> 
</g>
<g style="fill:#FFFFFF; fill-opacity:1.0; 
stroke:#FFFFFF; stroke-width:39.3701; stroke-opacity:1; 
stroke-linecap:round; stroke-linejoin:round;">
</g>
<g style="fill:#FFFFFF; fill-opacity:1.0; 
stroke:#FFFFFF; stroke-width:0; stroke-opacity:1; 
stroke-linecap:round; stroke-linejoin:round;">
<circle cx="22529.5" cy="1529.53" r="200" /> 
</g>
<g style="fill:#FFFFFF; fill-opacity:1.0; 
stroke:#FFFFFF; stroke-width:39.3701; stroke-opacity:1; 
stroke-linecap:round; stroke-linejoin:round;">
</g>
<g style="fill:#FFFFFF; fill-opacity:1.0; 
stroke:#FFFFFF; stroke-width:0; stroke-opacity:1; 
stroke-linecap:round; stroke-linejoin:round;">
<circle cx="23529.5" cy="1529.53" r="200" /> 
</g>
<g style="fill:#FFFFFF; fill-opacity:1.0; 
stroke:#FFFFFF; stroke-width:39.3701; stroke-opacity:1; 
stroke-linecap:round; stroke-linejoin:round;">
</g>
<g style="fill:#FFFFFF; fill-opacity:1.0; 
stroke:#FFFFFF; stroke-width:0; stroke-opacity:1; 
stroke-linecap:round; stroke-linejoin:round;">
<circle cx="24529.5" cy="1529.53" r="200" /> 
</g>
<g style="fill:#FFFFFF; fill-opacity:1.0; 
stroke:#FFFFFF; stroke-width:39.3701; stroke-opacity:1; 
stroke-linecap:round; stroke-linejoin:round;">
</g>
<g style="fill:#FFFFFF; fill-opacity:1.0; 
stroke:#FFFFFF; stroke-width:0; stroke-opacity:1; 
stroke-linecap:round; stroke-linejoin:round;">
<circle cx="25529.5" cy="1529.53" r="200" /> 
</g>
<g style="fill:#FFFFFF; fill-opacity:1.0; 
stroke:#FFFFFF; stroke-width:39.3701; stroke-opacity:1; 
stroke-linecap:round; stroke-linejoin:round;">
</g>
<g style="fill:#FFFFFF; fill-opacity:1.0; 
stroke:#FFFFFF; stroke-width:0; stroke-opacity:1; 
stroke-linecap:round; stroke-linejoin:round;">
<circle cx="26529.5" cy="1529.53" r="200" /> 
</g>
<g style="fill:#FFFFFF; fill-opacity:1.0; 
stroke:#FFFFFF; stroke-width:39.3701; stroke-opacity:1; 
stroke-linecap:round; stroke-linejoin:round;">
</g>
<g style="fill:#FFFFFF; fill-opacity:1.0; 
stroke:#FFFFFF; stroke-width:0; stroke-opacity:1; 
stroke-linecap:round; stroke-linejoin:round;">
<circle cx="27529.5" cy="1529.53" r="200" /> 
</g>
<g style="fill:#FFFFFF; fill-opacity:1.0; 
stroke:#FFFFFF; stroke-width:39.3701; stroke-opacity:1; 
stroke-linecap:round; stroke-linejoin:round;">
</g>
<g style="fill:#FFFFFF; fill-opacity:1.0; 
stroke:#FFFFFF; stroke-width:0; stroke-opacity:1; 
stroke-linecap:round; stroke-linejoin:round;">
<circle cx="8029.53" cy="20529.5" r="600" /> 
</g>
<g style="fill:#FFFFFF; fill-opacity:1.0; 
stroke:#FFFFFF; stroke-width:39.3701; stroke-opacity:1; 
stroke-linecap:round; stroke-linejoin:round;">
</g>
<g style="fill:#FFFFFF; fill-opacity:1.0; 
stroke:#FFFFFF; stroke-width:0; stroke-opacity:1; 
stroke-linecap:round; stroke-linejoin:round;">
<circle cx="28529.5" cy="18529.5" r="600" /> 
</g>
<g style="fill:#FFFFFF; fill-opacity:1.0; 
stroke:#FFFFFF; stroke-width:39.3701; stroke-opacity:1; 
stroke-linecap:round; stroke-linejoin:round;">
</g>
<g style="fill:#FFFFFF; fill-opacity:1.0; 
stroke:#FFFFFF; stroke-width:0; stroke-opacity:1; 
stroke-linecap:round; stroke-linejoin:round;">
<circle cx="8529.53" cy="1529.53" r="600" /> 
</g>
<g style="fill:#FFFFFF; fill-opacity:1.0; 
stroke:#FFFFFF; stroke-width:39.3701; stroke-opacity:1; 
stroke-linecap:round; stroke-linejoin:round;">
</g>
<g style="fill:#FFFFFF; fill-opacity:1.0; 
stroke:#FFFFFF; stroke-width:0; stroke-opacity:1; 
stroke-linecap:round; stroke-linejoin:round;">
<circle cx="28529.5" cy="7529.53" r="600" /> 
</g>
<g style="fill:#FFFFFF; fill-opacity:1.0; 
stroke:#FFFFFF; stroke-width:39.3701; stroke-opacity:1; 
stroke-linecap:round; stroke-linejoin:round;">
</g>
<g style="fill:#FFFFFF; fill-opacity:1.0; 
stroke:#FFFFFF; stroke-width:0; stroke-opacity:1; 
stroke-linecap:round; stroke-linejoin:round;">
<circle cx="20529.5" cy="16529.5" r="157.48" /> 
</g>
<g style="fill:#FFFFFF; fill-opacity:1.0; 
stroke:#FFFFFF; stroke-width:39.3701; stroke-opacity:1; 
stroke-linecap:round; stroke-linejoin:round;">
</g>
<g style="fill:#FFFFFF; fill-opacity:1.0; 
stroke:#FFFFFF; stroke-width:0; stroke-opacity:1; 
stroke-linecap:round; stroke-linejoin:round;">
<circle cx="23521.7" cy="16529.5" r="157.48" /> 
</g>
<g style="fill:#FFFFFF; fill-opacity:1.0; 
stroke:#FFFFFF; stroke-width:39.3701; stroke-opacity:1; 
stroke-linecap:round; stroke-linejoin:round;">
</g>
<g style="fill:#FFFFFF; fill-opacity:1.0; 
stroke:#FFFFFF; stroke-width:0; stroke-opacity:1; 
stroke-linecap:round; stroke-linejoin:round;">
<circle cx="24529.5" cy="12002" r="344.488" /> 
</g>
<g style="fill:#FFFFFF; fill-opacity:1.0; 
stroke:#FFFFFF; stroke-width:39.3701; stroke-opacity:1; 
stroke-linecap:round; stroke-linejoin:round;">
</g>
<g style="fill:#FFFFFF; fill-opacity:1.0; 
stroke:#FFFFFF; stroke-width:0; stroke-opacity:1; 
stroke-linecap:round; stroke-linejoin:round;">
<circle cx="24529.5" cy="13529.5" r="344.488" /> 
</g>
<g style="fill:#FFFFFF; fill-opacity:1.0; 
stroke:#FFFFFF; stroke-width:39.3701; stroke-opacity:1; 
stroke-linecap:round; stroke-linejoin:round;">
</g>
<g style="fill:#FFFFFF; fill-opacity:1.0; 
stroke:#FFFFFF; stroke-width:0; stroke-opacity:1; 
stroke-linecap:round; stroke-linejoin:round;">
<circle cx="24529.5" cy="9529.53" r="344.488" /> 
</g>
<g style="fill:#FFFFFF; fill-opacity:1.0; 
stroke:#FFFFFF; stroke-width:39.3701; stroke-opacity:1; 
stroke-linecap:round; stroke-linejoin:round;">
</g>
<g style="fill:#FFFFFF; fill-opacity:1.0; 
stroke:#FFFFFF; stroke-width:0; stroke-opacity:1; 
stroke-linecap:round; stroke-linejoin:round;">
<circle cx="24529.5" cy="8001.97" r="344.488" /> 
</g>
<g style="fill:#FFFFFF; fill-opacity:1.0; 
stroke:#FFFFFF; stroke-width:39.3701; stroke-opacity:1; 
stroke-linecap:round; stroke-linejoin:round;">
</g>
<g style="fill:#FFFFFF; fill-opacity:1.0; 
stroke:#FFFFFF; stroke-width:0; stroke-opacity:1; 
stroke-linecap:round; stroke-linejoin:round;">
<circle cx="25529.5" cy="15529.5" r="177.165" /> 
</g>
<g style="fill:#FFFFFF; fill-opacity:1.0; 
stroke:#FFFFFF; stroke-width:39.3701; stroke-opacity:1; 
stroke-linecap:round; stroke-linejoin:round;">
</g>
<g style="fill:#FFFFFF; fill-opacity:1.0; 
stroke:#FFFFFF; stroke-width:0; stroke-opacity:1; 
stroke-linecap:round; stroke-linejoin:round;">
<circle cx="25529.5" cy="16529.5" r="177.165" /> 
</g>
<g style="fill:#FFFFFF; fill-opacity:1.0; 
stroke:#FFFFFF; stroke-width:39.3701; stroke-opacity:1; 
stroke-linecap:round; stroke-linejoin:round;">
</g>
<g style="fill:#FFFFFF; fill-opacity:1.0; 
stroke:#FFFFFF; stroke-width:0; stroke-opacity:1; 
stroke-linecap:round; stroke-linejoin:round;">
<circle cx="25529.5" cy="5029.53" r="177.165" /> 
</g>
<g style="fill:#FFFFFF; fill-opacity:1.0; 
stroke:#FFFFFF; stroke-width:39.3701; stroke-opacity:1; 
stroke-linecap:round; stroke-linejoin:round;">
</g>
<g style="fill:#FFFFFF; fill-opacity:1.0; 
stroke:#FFFFFF; stroke-width:0; stroke-opacity:1; 
stroke-linecap:round; stroke-linejoin:round;">
<circle cx="25529.5" cy="6029.53" r="177.165" /> 
</g>
<g style="fill:#FFFFFF; fill-opacity:1.0; 
stroke:#FFFFFF; stroke-width:39.3701; stroke-opacity:1; 
stroke-linecap:round; stroke-linejoin:round;">
</g>
<g style="fill:#FFFFFF; fill-opacity:1.0; 
stroke:#FFFFFF; stroke-width:0; stroke-opacity:1; 
stroke-linecap:round; stroke-linejoin:round;">
<circle cx="7029.53" cy="7029.53" r="275.591" /> 
</g>
<g style="fill:#FFFFFF; fill-opacity:1.0; 
stroke:#FFFFFF; stroke-width:39.3701; stroke-opacity:1; 
stroke-linecap:round; stroke-linejoin:round;">
</g>
<g style="fill:#FFFFFF; fill-opacity:1.0; 
stroke:#FFFFFF; stroke-width:0; stroke-opacity:1; 
stroke-linecap:round; stroke-linejoin:round;">
<circle cx="7029.53" cy="4029.53" r="275.591" /> 
</g>
<g style="fill:#FFFFFF; fill-opacity:1.0; 
stroke:#FFFFFF; stroke-width:39.3701; stroke-opacity:1; 
stroke-linecap:round; stroke-linejoin:round;">
</g>
<g style="fill:#FFFFFF; fill-opacity:1.0; 
stroke:#FFFFFF; stroke-width:0; stroke-opacity:1; 
stroke-linecap:round; stroke-linejoin:round;">
<circle cx="7029.53" cy="14529.5" r="275.591" /> 
</g>
<g style="fill:#FFFFFF; fill-opacity:1.0; 
stroke:#FFFFFF; stroke-width:39.3701; stroke-opacity:1; 
stroke-linecap:round; stroke-linejoin:round;">
</g>
<g style="fill:#FFFFFF; fill-opacity:1.0; 
stroke:#FFFFFF; stroke-width:0; stroke-opacity:1; 
stroke-linecap:round; stroke-linejoin:round;">
<circle cx="7029.53" cy="17529.5" r="275.591" /> 
</g>
<g style="fill:#FFFFFF; fill-opacity:1.0; 
stroke:#FFFFFF; stroke-width:39.3701; stroke-opacity:1; 
stroke-linecap:round; stroke-linejoin:round;">
</g>
<g style="fill:#FFFFFF; fill-opacity:1.0; 
stroke:#FFFFFF; stroke-width:0; stroke-opacity:1; 
stroke-linecap:round; stroke-linejoin:round;">
<circle cx="7413.39" cy="9157.48" r="137.795" /> 
</g>
<g style="fill:#FFFFFF; fill-opacity:1.0; 
stroke:#FFFFFF; stroke-width:39.3701; stroke-opacity:1; 
stroke-linecap:round; stroke-linejoin:round;">
</g>
<g style="fill:#FFFFFF; fill-opacity:1.0; 
stroke:#FFFFFF; stroke-width:0; stroke-opacity:1; 
stroke-linecap:round; stroke-linejoin:round;">
<circle cx="10413.4" cy="9157.48" r="137.795" /> 
</g>
<g style="fill:#FFFFFF; fill-opacity:1.0; 
stroke:#FFFFFF; stroke-width:39.3701; stroke-opacity:1; 
stroke-linecap:round; stroke-linejoin:round;">
</g>
<g style="fill:#FFFFFF; fill-opacity:1.0; 
stroke:#FFFFFF; stroke-width:0; stroke-opacity:1; 
stroke-linecap:round; stroke-linejoin:round;">
<circle cx="18029.5" cy="4529.53" r="137.795" /> 
</g>
<g style="fill:#FFFFFF; fill-opacity:1.0; 
stroke:#FFFFFF; stroke-width:39.3701; stroke-opacity:1; 
stroke-linecap:round; stroke-linejoin:round;">
</g>
<g style="fill:#FFFFFF; fill-opacity:1.0; 
stroke:#FFFFFF; stroke-width:0; stroke-opacity:1; 
stroke-linecap:round; stroke-linejoin:round;">
<circle cx="18029.5" cy="7529.53" r="137.795" /> 
</g>
<g style="fill:#FFFFFF; fill-opacity:1.0; 
stroke:#FFFFFF; stroke-width:39.3701; stroke-opacity:1; 
stroke-linecap:round; stroke-linejoin:round;">
</g>
<g style="fill:#FFFFFF; fill-opacity:1.0; 
stroke:#FFFFFF; stroke-width:0; stroke-opacity:1; 
stroke-linecap:round; stroke-linejoin:round;">
<circle cx="7413.39" cy="10397.6" r="137.795" /> 
</g>
<g style="fill:#FFFFFF; fill-opacity:1.0; 
stroke:#FFFFFF; stroke-width:39.3701; stroke-opacity:1; 
stroke-linecap:round; stroke-linejoin:round;">
</g>
<g style="fill:#FFFFFF; fill-opacity:1.0; 
stroke:#FFFFFF; stroke-width:0; stroke-opacity:1; 
stroke-linecap:round; stroke-linejoin:round;">
<circle cx="10413.4" cy="10397.6" r="137.795" /> 
</g>
<g style="fill:#FFFFFF; fill-opacity:1.0; 
stroke:#FFFFFF; stroke-width:39.3701; stroke-opacity:1; 
stroke-linecap:round; stroke-linejoin:round;">
</g>
<g style="fill:#FFFFFF; fill-opacity:1.0; 
stroke:#FFFFFF; stroke-width:0; stroke-opacity:1; 
stroke-linecap:round; stroke-linejoin:round;">
<circle cx="10413.4" cy="11637.8" r="137.795" /> 
</g>
<g style="fill:#FFFFFF; fill-opacity:1.0; 
stroke:#FFFFFF; stroke-width:39.3701; stroke-opacity:1; 
stroke-linecap:round; stroke-linejoin:round;">
</g>
<g style="fill:#FFFFFF; fill-opacity:1.0; 
stroke:#FFFFFF; stroke-width:0; stroke-opacity:1; 
stroke-linecap:round; stroke-linejoin:round;">
<circle cx="7413.39" cy="11637.8" r="137.795" /> 
</g>
<g style="fill:#FFFFFF; fill-opacity:1.0; 
stroke:#FFFFFF; stroke-width:39.3701; stroke-opacity:1; 
stroke-linecap:round; stroke-linejoin:round;">
</g>
<g style="fill:#FFFFFF; fill-opacity:1.0; 
stroke:#FFFFFF; stroke-width:0; stroke-opacity:1; 
stroke-linecap:round; stroke-linejoin:round;">
<circle cx="16529.5" cy="13529.5" r="137.795" /> 
</g>
<g style="fill:#FFFFFF; fill-opacity:1.0; 
stroke:#FFFFFF; stroke-width:39.3701; stroke-opacity:1; 
stroke-linecap:round; stroke-linejoin:round;">
</g>
<g style="fill:#FFFFFF; fill-opacity:1.0; 
stroke:#FFFFFF; stroke-width:0; stroke-opacity:1; 
stroke-linecap:round; stroke-linejoin:round;">
<circle cx="13529.5" cy="13529.5" r="137.795" /> 
</g>
<g style="fill:#FFFFFF; fill-opacity:1.0; 
stroke:#FFFFFF; stroke-width:39.3701; stroke-opacity:1; 
stroke-linecap:round; stroke-linejoin:round;">
</g>
<g style="fill:#FFFFFF; fill-opacity:1.0; 
stroke:#FFFFFF; stroke-width:0; stroke-opacity:1; 
stroke-linecap:round; stroke-linejoin:round;">
<circle cx="9029.53" cy="13529.5" r="137.795" /> 
</g>
<g style="fill:#FFFFFF; fill-opacity:1.0; 
stroke:#FFFFFF; stroke-width:39.3701; stroke-opacity:1; 
stroke-linecap:round; stroke-linejoin:round;">
</g>
<g style="fill:#FFFFFF; fill-opacity:1.0; 
stroke:#FFFFFF; stroke-width:0; stroke-opacity:1; 
stroke-linecap:round; stroke-linejoin:round;">
<circle cx="12029.5" cy="13529.5" r="137.795" /> 
</g>
<g style="fill:#FFFFFF; fill-opacity:1.0; 
stroke:#FFFFFF; stroke-width:39.3701; stroke-opacity:1; 
stroke-linecap:round; stroke-linejoin:round;">
</g>
<g style="fill:#FFFFFF; fill-opacity:1.0; 
stroke:#FFFFFF; stroke-width:0; stroke-opacity:1; 
stroke-linecap:round; stroke-linejoin:round;">
<circle cx="14529.5" cy="17029.5" r="137.795" /> 
</g>
<g style="fill:#FFFFFF; fill-opacity:1.0; 
stroke:#FFFFFF; stroke-width:39.3701; stroke-opacity:1; 
stroke-linecap:round; stroke-linejoin:round;">
</g>
<g style="fill:#FFFFFF; fill-opacity:1.0; 
stroke:#FFFFFF; stroke-width:0; stroke-opacity:1; 
stroke-linecap:round; stroke-linejoin:round;">
<circle cx="17529.5" cy="17029.5" r="137.795" /> 
</g>
<g style="fill:#FFFFFF; fill-opacity:1.0; 
stroke:#FFFFFF; stroke-width:39.3701; stroke-opacity:1; 
stroke-linecap:round; stroke-linejoin:round;">
</g>
<g style="fill:#FFFFFF; fill-opacity:1.0; 
stroke:#FFFFFF; stroke-width:0; stroke-opacity:1; 
stroke-linecap:round; stroke-linejoin:round;">
<circle cx="13529.5" cy="14529.5" r="137.795" /> 
</g>
<g style="fill:#FFFFFF; fill-opacity:1.0; 
stroke:#FFFFFF; stroke-width:39.3701; stroke-opacity:1; 
stroke-linecap:round; stroke-linejoin:round;">
</g>
<g style="fill:#FFFFFF; fill-opacity:1.0; 
stroke:#FFFFFF; stroke-width:0; stroke-opacity:1; 
stroke-linecap:round; stroke-linejoin:round;">
<circle cx="16529.5" cy="14529.5" r="137.795" /> 
</g>
<g style="fill:#FFFFFF; fill-opacity:1.0; 
stroke:#FFFFFF; stroke-width:39.3701; stroke-opacity:1; 
stroke-linecap:round; stroke-linejoin:round;">
</g>
<g style="fill:#FFFFFF; fill-opacity:1.0; 
stroke:#FFFFFF; stroke-width:0; stroke-opacity:1; 
stroke-linecap:round; stroke-linejoin:round;">
<circle cx="19029.5" cy="16529.5" r="137.795" /> 
</g>
<g style="fill:#FFFFFF; fill-opacity:1.0; 
stroke:#FFFFFF; stroke-width:39.3701; stroke-opacity:1; 
stroke-linecap:round; stroke-linejoin:round;">
</g>
<g style="fill:#FFFFFF; fill-opacity:1.0; 
stroke:#FFFFFF; stroke-width:0; stroke-opacity:1; 
stroke-linecap:round; stroke-linejoin:round;">
<circle cx="19029.5" cy="13529.5" r="137.795" /> 
</g>
<g style="fill:#FFFFFF; fill-opacity:1.0; 
stroke:#FFFFFF; stroke-width:39.3701; stroke-opacity:1; 
stroke-linecap:round; stroke-linejoin:round;">
</g>
<g style="fill:#FFFFFF; fill-opacity:1.0; 
stroke:#FFFFFF; stroke-width:0; stroke-opacity:1; 
stroke-linecap:round; stroke-linejoin:round;">
<circle cx="25529.5" cy="3529.53" r="137.795" /> 
</g>
<g style="fill:#FFFFFF; fill-opacity:1.0; 
stroke:#FFFFFF; stroke-width:39.3701; stroke-opacity:1; 
stroke-linecap:round; stroke-linejoin:round;">
</g>
<g style="fill:#FFFFFF; fill-opacity:1.0; 
stroke:#FFFFFF; stroke-width:0; stroke-opacity:1; 
stroke-linecap:round; stroke-linejoin:round;">
<circle cx="22529.5" cy="3529.53" r="137.795" /> 
</g>
<g style="fill:#FFFFFF; fill-opacity:1.0; 
stroke:#FFFFFF; stroke-width:39.3701; stroke-opacity:1; 
stroke-linecap:round; stroke-linejoin:round;">
</g>
<g style="fill:#FFFFFF; fill-opacity:1.0; 
stroke:#FFFFFF; stroke-width:0; stroke-opacity:1; 
stroke-linecap:round; stroke-linejoin:round;">
<circle cx="23529.5" cy="6029.53" r="137.795" /> 
</g>
<g style="fill:#FFFFFF; fill-opacity:1.0; 
stroke:#FFFFFF; stroke-width:39.3701; stroke-opacity:1; 
stroke-linecap:round; stroke-linejoin:round;">
</g>
<g style="fill:#FFFFFF; fill-opacity:1.0; 
stroke:#FFFFFF; stroke-width:0; stroke-opacity:1; 
stroke-linecap:round; stroke-linejoin:round;">
<circle cx="20529.5" cy="6029.53" r="137.795" /> 
</g>
<g style="fill:#FFFFFF; fill-opacity:1.0; 
stroke:#FFFFFF; stroke-width:39.3701; stroke-opacity:1; 
stroke-linecap:round; stroke-linejoin:round;">
</g>
<g style="fill:#FFFFFF; fill-opacity:1.0; 
stroke:#FFFFFF; stroke-width:0; stroke-opacity:1; 
stroke-linecap:round; stroke-linejoin:round;">
<circle cx="13029.5" cy="5029.53" r="157.48" /> 
</g>
<g style="fill:#FFFFFF; fill-opacity:1.0; 
stroke:#FFFFFF; stroke-width:39.3701; stroke-opacity:1; 
stroke-linecap:round; stroke-linejoin:round;">
</g>
<g style="fill:#FFFFFF; fill-opacity:1.0; 
stroke:#FFFFFF; stroke-width:0; stroke-opacity:1; 
stroke-linecap:round; stroke-linejoin:round;">
<circle cx="10029.5" cy="7029.53" r="157.48" /> 
</g>
<g style="fill:#FFFFFF; fill-opacity:1.0; 
stroke:#FFFFFF; stroke-width:39.3701; stroke-opacity:1; 
stroke-linecap:round; stroke-linejoin:round;">
</g>
<g style="fill:#FFFFFF; fill-opacity:1.0; 
stroke:#FFFFFF; stroke-width:0; stroke-opacity:1; 
stroke-linecap:round; stroke-linejoin:round;">
<circle cx="13029.5" cy="6029.53" r="157.48" /> 
</g>
<g style="fill:#FFFFFF; fill-opacity:1.0; 
stroke:#FFFFFF; stroke-width:39.3701; stroke-opacity:1; 
stroke-linecap:round; stroke-linejoin:round;">
</g>
<g style="fill:#FFFFFF; fill-opacity:1.0; 
stroke:#FFFFFF; stroke-width:0; stroke-opacity:1; 
stroke-linecap:round; stroke-linejoin:round;">
<circle cx="10029.5" cy="6029.53" r="157.48" /> 
</g>
<g style="fill:#FFFFFF; fill-opacity:1.0; 
stroke:#FFFFFF; stroke-width:39.3701; stroke-opacity:1; 
stroke-linecap:round; stroke-linejoin:round;">
</g>
<g style="fill:#FFFFFF; fill-opacity:1.0; 
stroke:#FFFFFF; stroke-width:0; stroke-opacity:1; 
stroke-linecap:round; stroke-linejoin:round;">
<circle cx="13029.5" cy="7029.53" r="157.48" /> 
</g>
<g style="fill:#FFFFFF; fill-opacity:1.0; 
stroke:#FFFFFF; stroke-width:39.3701; stroke-opacity:1; 
stroke-linecap:round; stroke-linejoin:round;">
</g>
<g style="fill:#FFFFFF; fill-opacity:1.0; 
stroke:#FFFFFF; stroke-width:0; stroke-opacity:1; 
stroke-linecap:round; stroke-linejoin:round;">
<circle cx="10029.5" cy="5029.53" r="157.48" /> 
</g>
<g style="fill:#FFFFFF; fill-opacity:1.0; 
stroke:#FFFFFF; stroke-width:39.3701; stroke-opacity:1; 
stroke-linecap:round; stroke-linejoin:round;">
</g>
<g style="fill:#FFFFFF; fill-opacity:1.0; 
stroke:#FFFFFF; stroke-width:0; stroke-opacity:1; 
stroke-linecap:round; stroke-linejoin:round;">
<circle cx="10029.5" cy="16029.5" r="157.48" /> 
</g>
<g style="fill:#FFFFFF; fill-opacity:1.0; 
stroke:#FFFFFF; stroke-width:39.3701; stroke-opacity:1; 
stroke-linecap:round; stroke-linejoin:round;">
</g>
<g style="fill:#FFFFFF; fill-opacity:1.0; 
stroke:#FFFFFF; stroke-width:0; stroke-opacity:1; 
stroke-linecap:round; stroke-linejoin:round;">
<circle cx="13029.5" cy="18029.5" r="157.48" /> 
</g>
<g style="fill:#FFFFFF; fill-opacity:1.0; 
stroke:#FFFFFF; stroke-width:39.3701; stroke-opacity:1; 
stroke-linecap:round; stroke-linejoin:round;">
</g>
<g style="fill:#FFFFFF; fill-opacity:1.0; 
stroke:#FFFFFF; stroke-width:0; stroke-opacity:1; 
stroke-linecap:round; stroke-linejoin:round;">
<circle cx="10029.5" cy="17029.5" r="157.48" /> 
</g>
<g style="fill:#FFFFFF; fill-opacity:1.0; 
stroke:#FFFFFF; stroke-width:39.3701; stroke-opacity:1; 
stroke-linecap:round; stroke-linejoin:round;">
</g>
<g style="fill:#FFFFFF; fill-opacity:1.0; 
stroke:#FFFFFF; stroke-width:0; stroke-opacity:1; 
stroke-linecap:round; stroke-linejoin:round;">
<circle cx="13029.5" cy="17029.5" r="157.48" /> 
</g>
<g style="fill:#FFFFFF; fill-opacity:1.0; 
stroke:#FFFFFF; stroke-width:39.3701; stroke-opacity:1; 
stroke-linecap:round; stroke-linejoin:round;">
</g>
<g style="fill:#FFFFFF; fill-opacity:1.0; 
stroke:#FFFFFF; stroke-width:0; stroke-opacity:1; 
stroke-linecap:round; stroke-linejoin:round;">
<circle cx="10029.5" cy="18029.5" r="157.48" /> 
</g>
<g style="fill:#FFFFFF; fill-opacity:1.0; 
stroke:#FFFFFF; stroke-width:39.3701; stroke-opacity:1; 
stroke-linecap:round; stroke-linejoin:round;">
</g>
<g style="fill:#FFFFFF; fill-opacity:1.0; 
stroke:#FFFFFF; stroke-width:0; stroke-opacity:1; 
stroke-linecap:round; stroke-linejoin:round;">
<circle cx="13029.5" cy="16029.5" r="157.48" /> 
</g>
<g style="fill:#FFFFFF; fill-opacity:1.0; 
stroke:#FFFFFF; stroke-width:39.3701; stroke-opacity:1; 
stroke-linecap:round; stroke-linejoin:round;">
</g>
<g style="fill:#000000; fill-opacity:1.0; 
stroke:#000000; stroke-width:39.3701; stroke-opacity:1; 
stroke-linecap:round; stroke-linejoin:round;">
</g>
<g style="fill:#C2C200; fill-opacity:1.0; 
stroke:#C2C200; stroke-width:39.3701; stroke-opacity:1; 
stroke-linecap:round; stroke-linejoin:round;">
</g>
<g style="fill:#C2C200; fill-opacity:1.0; 
stroke:#C2C200; stroke-width:59.0551; stroke-opacity:1; 
stroke-linecap:round; stroke-linejoin:round;">
</g>
<g style="fill:#C2C200; fill-opacity:0.0; 
stroke:#C2C200; stroke-width:59.0551; stroke-opacity:1; 
stroke-linecap:round; stroke-linejoin:round;">
<path d="M28529 1129
L27929 529
" />
<path d="M28529 5629
L28529 1129
" />
<path d="M29529 6629
L28529 5629
" />
<path d="M29529 19529
L29529 6629
" />
<path d="M28529 20529
L29529 19529
" />
<path d="M28529 21529
L28529 20529
" />
<path d="M2529 21529
L28529 21529
" />
<path d="M2529 529
L2529 21529
" />
<path d="M27929 529
L2529 529
" />
<g >
</g>
<g >
</g>
<g >
</g>
<g >
</g>
<g >
</g>
<g >
</g>
<g >
</g>
<g >
</g>
<g >
</g>
<g >
</g>
<g >
</g>
<g >
</g>
<g >
</g>
<g >
</g>
<g >
</g>
<g >
</g>
<g >
</g>
<g >
</g>
<g >
</g>
<g >
</g>
<g >
</g>
<g >
</g>
<g >
</g>
<g >
</g>
<g >
</g>
<g >
</g>
<g >
</g>
<g >
</g>
<g >
</g>
</g> 
</svg>
